<svg width="92" height="60" viewBox="0 0 92 60" fill="none" xmlns="http://www.w3.org/2000/svg">
<rect width="92" height="60" fill="white"/>
<path d="M21.5644 4.22566C12.3484 40.6046 5.77774 49.6993 3.64441 49.6993L15.1644 52.2257L35.6444 19.3836" stroke="#FD9C00"/>
<path d="M21.1444 4.72566C38.7444 4.72566 37.8111 15.059 35.1444 20.2257" stroke="#FD9C00"/>
<path d="M22.4188 6.15369C22.4188 6.10132 22.4177 6.30559 22.4188 6.33097C22.4253 6.47287 22.5007 6.59329 22.5007 6.74461C22.5007 6.90857 22.5416 7.07381 22.5416 7.21734" stroke="white" stroke-linecap="round"/>
<path d="M23.237 6.07186C23.0103 6.10965 23.0175 6.30746 22.8711 6.4355C22.779 6.51609 22.7214 6.60758 22.6211 6.68777C22.4754 6.80437 22.3461 6.94011 22.2143 7.07187C22.0541 7.23205 22.0916 6.83037 22.0916 6.74459C22.0916 6.58933 22.1037 6.33902 22.2143 6.21732C22.3111 6.1108 22.1902 5.93128 22.2757 5.82868C22.3235 5.77123 22.7764 5.39416 22.4393 5.34231C22.3472 5.32813 22.207 5.67469 22.1825 5.75368C22.1368 5.90099 22.0997 5.97691 21.9507 6.05368C21.8494 6.10584 21.7844 6.20341 21.8143 6.08095C21.8448 5.95609 21.94 5.76711 22.0098 5.65368C22.0547 5.58063 22.082 5.49518 22.1529 5.44004C22.2309 5.37945 22.4194 5.41731 22.5075 5.41731C22.772 5.41731 23.0189 5.47592 23.2802 5.49458C23.6877 5.52369 24.1711 5.47261 24.5643 5.60368C25.0242 5.75697 25.5252 5.74459 26.0098 5.74459C26.2187 5.74459 26.3498 5.76494 26.5348 5.82186C26.6761 5.86533 26.8387 5.79242 26.9802 5.84686C27.2889 5.96556 27.6417 5.86993 27.9507 5.95822C28.2461 6.04261 28.488 6.19369 28.7825 6.26732C29.3657 6.41312 30.0296 6.34164 30.5598 6.64459C30.8066 6.78562 30.9836 7.01784 31.2371 7.14459C31.4395 7.24578 31.6088 7.41895 31.828 7.46278" stroke="#FD9C00" stroke-linecap="round"/>
<path d="M26.9189 13.3537C26.9189 13.4283 26.9014 13.4815 26.8734 13.5515C26.758 13.8399 26.699 14.1508 26.6143 14.4492C26.5309 14.7432 26.4006 14.9956 26.3052 15.2765C26.2484 15.4437 26.1629 15.5831 26.0984 15.7378C25.7207 16.6443 25.5621 17.5965 25.3143 18.5447C25.2133 18.9313 25.0587 19.1747 24.8007 19.4719C24.7327 19.5503 24.65 19.6159 24.5734 19.6856C24.544 19.7123 24.591 19.607 24.6098 19.5719C24.7828 19.2484 24.9663 18.9294 25.1439 18.6083C25.6582 17.6782 26.218 16.7847 26.8052 15.8992C27.0281 15.5632 27.2493 15.226 27.4757 14.8924C27.5534 14.7779 27.671 14.5414 27.7916 14.4492C27.8166 14.4301 27.7847 14.8339 27.778 14.8674C27.7304 15.1052 27.65 15.3333 27.5734 15.5628" stroke="#FD9C00" stroke-width="5" stroke-linecap="round"/>
<path d="M25.656 19.0252C25.5814 19.3484 25.3483 19.6823 25.204 19.974C24.5604 21.2749 23.8889 22.5671 23.3908 23.9332C22.6869 25.8639 22.1102 27.9455 21.7217 29.9639C21.3154 32.0746 20.9437 34.2652 19.9929 36.2132C19.1555 37.9288 18.399 39.6257 17.7178 41.4093C17.2143 42.7277 16.9621 44.7245 15.4823 45.3635C14.8351 45.643 14.0731 45.9333 13.7288 46.5955C13.5214 46.9943 13.0824 47.6738 12.7253 47.9119C12.0913 48.3346 12.4591 46.8652 12.5316 46.5707C12.8486 45.2822 13.5409 44.0137 14.2504 42.8996C14.8771 41.9154 15.6989 41.1061 16.1977 40.0382C17.4248 37.4107 17.0434 34.3098 18.3238 31.7125C18.7969 30.7527 19.6013 30.0393 20.1519 29.1392C20.623 28.3692 20.8867 27.5051 21.2647 26.6952C21.4428 26.3135 21.4555 25.8365 21.5925 25.4334C21.7591 24.9433 21.9243 24.4534 22.0744 23.958C22.3589 23.019 22.6832 22.1069 22.8891 21.1463C23.1468 19.9437 23.086 18.6217 23.4206 17.4504C23.5826 16.8834 23.5081 16.2722 23.6392 15.6919C23.7408 15.2418 23.802 14.7757 23.9174 14.3307C24.2421 13.0784 24.6419 11.8494 24.8314 10.5702C24.8724 10.2939 24.8997 9.90958 24.8314 9.63633C24.7833 9.44378 24.5341 8.85625 24.3645 8.76203C23.8147 8.45663 23.2252 8.94871 22.9338 9.32337C22.8206 9.46894 22.7947 9.86132 22.7947 10.0437C22.7947 10.5073 22.6903 10.8787 22.6258 11.3303C22.4897 12.2833 22.3866 13.317 22.1191 14.2364C21.9576 14.7916 21.9401 15.4394 21.8608 16.0148C21.7843 16.5691 21.5716 17.1578 21.5428 17.7038C21.4849 18.8054 20.757 19.7983 20.5791 20.883C20.2934 22.6258 19.7516 24.3291 19.1733 25.9997C18.8568 26.9139 18.5755 27.8495 18.2791 28.7716C17.9639 29.7523 17.8096 30.8847 17.2508 31.7721C16.6725 32.6907 16.5082 33.7879 15.999 34.7427C15.5774 35.5332 15.4614 36.4537 15.0601 37.2564C14.7502 37.8761 14.3876 38.5046 14.1212 39.1441C13.8353 39.8303 13.3558 40.4323 13.0879 41.1212C12.8432 41.7506 12.4123 42.2898 12.0646 42.8549C11.7421 43.379 11.5317 43.8878 11.2797 44.4197C11.0799 44.8415 10.9613 45.3544 10.7234 45.7411C10.5028 46.0995 10.2142 46.5048 10.0974 46.9134C10.0583 47.0503 9.80179 47.3608 9.70002 47.4996C9.58151 47.6612 9.47409 47.745 9.29267 47.8175C8.97009 47.9466 8.51538 47.9896 8.30908 48.2646" stroke="#FD9C00" stroke-width="5" stroke-linecap="round"/>
<path d="M31.0211 16.7897C30.5909 17.0317 30.1689 17.8978 29.8785 18.285C29.5727 18.6928 29.3821 19.1583 29.193 19.6312C28.5817 21.1593 28.0496 22.6609 27.2655 24.117C26.9177 24.7629 26.513 25.3557 26.2323 26.0494C25.9383 26.7757 25.7199 27.5284 25.3878 28.2401C25.039 28.9874 24.7527 29.7855 24.4241 30.5401C24.1451 31.1808 23.6777 31.8565 23.51 32.5272" stroke="#FD9C00" stroke-width="5" stroke-linecap="round"/>
<path d="M24.1359 7.22206C24.6276 7.27669 24.8973 7.77662 25.2984 7.97714C25.776 8.21597 26.3014 8.62685 26.8135 8.78686C27.3794 8.96372 27.7288 9.41828 28.2491 9.6413C28.706 9.83712 28.8249 10.24 29.188 10.5305C29.5698 10.8359 29.6861 11.232 29.8388 11.6731C29.9348 11.9505 30.1043 12.1734 30.1269 12.4778C30.136 12.6005 30.2648 13.102 30.3256 13.1932C30.8447 13.9718 31.7664 14.5849 32.0047 15.5379" stroke="#FD9C00" stroke-width="5" stroke-linecap="round"/>
<path d="M28.1597 8.56332C28.4795 8.9631 28.8618 9.35746 29.183 9.77046C29.3823 10.0267 29.525 10.6653 29.8586 10.7988C30.0906 10.8916 30.2753 11.0664 30.4448 11.2458C30.5528 11.3603 31.0039 11.6854 31.021 11.7823C31.0599 12.0024 31.4036 12.2693 31.5178 12.4977C31.643 12.7481 31.8484 12.946 31.9152 13.213" stroke="#FD9C00" stroke-width="5" stroke-linecap="round"/>
<path d="M28.7856 11.067C29.1649 11.067 29.7368 10.9506 30.0375 11.2061C30.235 11.374 30.6669 11.5756 30.9317 11.6035C31.1641 11.628 31.273 11.8157 31.3986 11.9413C31.5613 12.104 32.0537 12.1746 32.2729 12.2294" stroke="#FD9C00" stroke-width="5" stroke-linecap="round"/>
<path d="M28.3385 8.56332C28.4176 8.91917 29.1378 9.00581 29.3221 9.32834C29.4973 9.63495 29.8403 10.0148 30.1716 10.0884C30.3383 10.1254 30.5045 10.3423 30.6634 10.3517C30.798 10.3596 31.1097 10.2836 31.1999 10.3964C31.3774 10.6183 31.7465 10.7991 31.8705 11.0223C32.0168 11.2857 32.3201 11.4795 32.4318 11.8022C32.573 12.21 32.7108 12.6231 32.8988 13.0342C33.2761 13.8596 33.3459 14.9832 33.3459 15.8955C33.3459 16.24 33.3459 16.5844 33.3459 16.9288C33.3459 17.4296 33.1793 17.6636 32.9832 18.121C32.824 18.4925 32.432 18.8062 32.2729 19.204C32.1236 19.5771 31.911 19.9357 31.6917 20.277C31.4868 20.5956 31.22 21.167 31.1999 21.5288C31.1912 21.6842 31.05 21.8126 30.9713 21.9362C30.8536 22.1212 30.8907 22.3573 30.7528 22.5124C30.5785 22.7085 30.5964 23.0667 30.3951 23.2278C30.2619 23.3343 30.1365 23.6327 30.0374 23.7841C29.7671 24.1976 29.4387 24.604 29.2327 25.0161" stroke="#FD9C00" stroke-width="5" stroke-linecap="round"/>
<path d="M25.5666 25.9103C25.5666 26.2762 25.7076 26.6237 25.7454 26.9833C25.7848 27.3567 26.1657 27.7146 26.1925 28.0762C26.2173 28.411 26.3714 28.6478 26.3714 28.9704C26.3714 29.3847 26.1712 29.5146 25.9591 29.8447C25.7675 30.1427 25.4304 30.3193 25.2984 30.6494C25.1993 30.897 24.9559 31.3723 24.7619 31.5386C24.2333 31.9916 23.8197 32.7126 23.51 33.3319" stroke="#FD9C00" stroke-width="5" stroke-linecap="round"/>
<path d="M18.7709 33.0637C18.8211 33.5654 19.1251 34.1082 19.3571 34.5391C19.6283 35.0428 19.7667 35.553 20.0674 36.0542C20.3949 36.6 21.4866 37.7982 20.9169 38.4685C20.2781 39.22 19.9501 40.1186 19.4415 40.9324C19.2093 41.3039 19.0499 41.8163 18.7709 42.1445C18.4246 42.5519 18.082 42.994 17.7873 43.4361" stroke="#FD9C00" stroke-width="5" stroke-linecap="round"/>
<path d="M21.364 32.6166C21.5964 32.6456 21.8455 33.7339 21.9899 33.9777C22.217 34.3609 22.437 34.8552 22.437 35.2991C22.437 35.4481 22.437 35.5972 22.437 35.7462C22.437 35.9927 22.4977 35.6556 22.596 35.5475C22.8262 35.2942 22.9735 35.0003 22.9735 34.6732" stroke="#FD9C00" stroke-width="5" stroke-linecap="round"/>
<path d="M25.1195 23.4066C25.1531 24.0112 25.6354 24.6338 25.9441 25.1254C26.1316 25.424 26.2371 25.7132 26.4608 25.95C26.647 26.1472 26.7949 26.5521 26.9277 26.8045C27.0704 27.0756 27.4378 27.2726 27.6232 27.5198" stroke="#FD9C00" stroke-width="5" stroke-linecap="round"/>
<path d="M30.6634 13.3919C30.3342 13.3507 31.1215 11.7747 31.1801 11.5638C31.2473 11.3217 31.3337 11.0342 31.3738 10.7938C31.4162 10.5393 31.539 10.5271 31.6272 10.2821C31.7702 9.88477 32.235 10.0359 32.4319 10.2821C32.6365 10.5378 32.7457 11.0084 32.9187 11.3353C33.0897 11.6581 33.101 12.0292 33.3261 12.3387C33.5095 12.5909 33.4255 13.0218 33.5943 13.2329C33.6839 13.3449 33.6621 13.639 33.7483 13.7942C33.8481 13.9738 33.8903 14.2443 33.952 14.445C34.06 14.796 34.0613 15.3521 34.0613 15.7167" stroke="#FD9C00" stroke-width="5" stroke-linecap="round"/>
<path d="M14.7471 45.0456C14.7471 45.7224 14.8365 46.4092 14.8365 47.0972C14.8365 47.4122 14.8926 47.5378 14.613 47.6884C14.3959 47.8052 14.1406 47.9574 14.0317 48.1752" stroke="#FD9C00" stroke-width="5" stroke-linecap="round"/>
<path d="M15.7307 45.135C15.9931 45.1678 16.1689 46.0113 16.2672 46.208" stroke="#FD9C00" stroke-width="5" stroke-linecap="round"/>
<path d="M11.4387 47.1022C11.4387 47.436 11.4117 47.8684 11.548 48.1752C11.693 48.5015 11.5116 48.98 11.9802 48.98C12.4415 48.98 13.6741 48.908 13.6741 49.5165" stroke="#FD9C00" stroke-width="5" stroke-linecap="round"/>
<path d="M11.5281 47.5493C11.4548 47.8794 10.6246 48.5025 10.4154 48.7117C9.99231 49.1348 9.00245 48.4435 8.48792 48.4435" stroke="#FD9C00" stroke-width="5" stroke-linecap="round"/>
<path d="M23.2418 19.6511C22.8626 19.7545 22.6113 20.0859 22.1688 19.8647C21.7653 19.663 22.0212 19.3676 21.8558 19.0699C21.692 18.7749 21.596 18.4886 21.1852 18.4886C20.9137 18.4886 20.5593 18.4355 20.5593 18.7966C20.5593 19.3031 20.4698 19.7734 20.4698 20.2571C20.4698 20.3285 20.2635 20.8366 20.2016 20.883C20.0002 21.0341 20.0379 21.5082 19.8936 21.5984C19.6299 21.7632 19.8513 22.0341 19.7098 22.2889C19.5766 22.5286 19.536 22.874 19.4415 23.1383C19.2426 23.6954 19.0537 24.2276 18.905 24.7926C18.7374 25.4295 18.7529 26.1449 18.4629 26.725C18.2169 27.217 17.9683 27.9326 17.8718 28.4636C17.7682 29.0334 17.5923 29.5853 17.4098 30.1328C17.2959 30.4745 17.096 30.7429 17.0024 31.0965C16.9395 31.3341 16.8371 31.7807 16.6944 31.9708C16.5234 32.1989 16.5552 32.5787 16.4014 32.8352C16.2166 33.1431 16.1341 33.5284 15.9493 33.8188C15.6129 34.3474 15.1497 34.9398 14.9359 35.5276C14.5124 36.6923 14.1707 37.833 13.6046 38.9652C13.3906 39.3931 13.3548 39.8005 13.1575 40.2171C13.0464 40.4516 12.8814 40.7077 12.7998 40.9523C12.6803 41.3109 12.3938 41.7656 12.8694 41.2901" stroke="#FD9C00" stroke-width="5" stroke-linecap="round"/>
<path d="M24.583 8.74216C24.5596 8.5549 23.9463 8.67496 23.7832 8.64778C23.5098 8.60221 23.3689 8.3492 23.1523 8.29507" stroke="#FD9C00" stroke-width="5" stroke-linecap="round"/>
<path d="M23.6889 16.0744C23.6113 15.3762 22.5945 15.3516 22.1191 15.1355C21.8443 15.0106 21.737 14.9574 21.5876 14.6884C21.4844 14.5027 21.8656 14.1149 21.99 13.9284" stroke="#FD9C00" stroke-width="5" stroke-linecap="round"/>
<path d="M21.7216 17.5945C21.7123 17.511 21.6766 17.4823 21.6322 17.4156" stroke="#FD9C00" stroke-linecap="round"/>
<path d="M20.8275 16.2532C20.7979 16.0167 20.1882 15.8957 20.0227 16.0943C19.7808 16.3845 19.5492 16.7764 19.2875 17.0381C18.9046 17.421 19.0022 17.2319 19.0391 16.7699C19.0517 16.613 19.1736 16.5202 19.213 16.3824C19.2692 16.1856 19.2118 15.9203 19.218 15.7167C19.2586 14.3744 19.5703 18.5159 19.0193 19.7405C18.9565 19.8799 18.5026 20.5004 18.5026 20.0982C18.5026 19.9434 18.3463 19.2211 18.145 19.6014C17.9273 20.0125 18.0139 20.3255 17.7177 20.6545C17.3832 21.0263 18.0016 20.5857 18.0853 20.5254C18.7152 20.0719 19.3813 19.6166 19.9134 19.045C20.6228 18.2832 20.3968 16.8597 20.3108 15.9353C20.2389 15.1624 20.291 14.3674 20.291 13.5906C20.291 13.2742 20.334 12.9091 20.132 12.6567C20.0153 12.5108 20.1242 12.3928 19.983 12.756C19.8692 13.0485 20.1186 13.1726 20.3108 13.372C20.867 13.9487 20.6486 15.3229 20.6486 16.0346C20.6486 16.7036 20.6486 17.3726 20.6486 18.0416" stroke="#FD9C00" stroke-linecap="round"/>
<path d="M16.7143 25.5526C16.3863 25.5526 16.3567 25.875 16.3567 26.1736C16.3567 26.4448 16.1773 26.8011 16.0884 27.0678C16.0248 27.2587 15.8934 27.463 15.7804 27.6291C15.6475 27.8246 15.6208 28.0819 15.4824 28.255C15.1633 28.6539 15.3119 29.2886 14.9707 29.7056C14.5744 30.1899 14.5284 30.6754 14.3696 31.2753C14.2365 31.7782 14.0318 32.1394 14.0318 32.6663C14.0318 32.7757 13.8697 33.0276 13.9722 32.9892C14.3723 32.8391 14.8083 32.1825 15.0452 31.8516C15.3733 31.3933 15.6735 30.9178 15.8996 30.401C16.0367 30.0878 16.027 29.7528 16.1778 29.4373C16.6611 28.4268 16.7525 27.5371 16.8882 26.4518C16.9335 26.089 16.7143 25.8929 16.7143 25.5725C16.7143 25.084 16.5382 25.0241 16.7143 25.5526Z" stroke="#FD9C00" stroke-linecap="round"/>
<path d="M7.05722 49.1588C7.03739 49.476 5.80537 49.7598 5.80537 49.4271C5.80537 49.0419 6.09616 49.4717 5.71596 49.5165C5.58533 49.5318 5.4774 49.6253 5.35829 49.6754C5.04049 49.8092 5.37812 49.6953 5.62654 49.6953" stroke="#FD9C00" stroke-linecap="round"/>
<path d="M16.3826 24.4944C16.3662 24.6504 16.2413 24.8049 16.2413 24.9616C16.2413 24.9958 16.2215 25.0143 16.2146 25.0457C16.2072 25.0791 16.213 25.1193 16.213 25.1533C16.213 25.2967 16.2365 25.433 16.213 25.5765C16.1837 25.7558 16.1569 25.9042 16.0497 26.0493C15.9925 26.1266 15.9402 26.2169 15.8926 26.299C15.8257 26.4145 15.7584 26.5222 15.7049 26.6454C15.6734 26.7178 15.6533 26.8012 15.6484 26.8802C15.6448 26.9372 15.6832 26.93 15.7324 26.9399" stroke="#FD9C00" stroke-linecap="round"/>
<path d="M21.2141 4C21.18 4.03712 21.1392 4.06288 21.1032 4.09621C21.0883 4.10999 21.0706 4.134 21.0522 4.14208C21.0336 4.15026 21.0023 4.17381 20.9892 4.18923C20.939 4.24806 20.881 4.30072 20.8417 4.36953C20.8325 4.38557 20.8465 4.37615 20.8554 4.37113C20.8956 4.34841 20.9378 4.32965 20.9777 4.30646C21.0522 4.2632 21.1262 4.20974 21.1851 4.14622C21.2527 4.07329 21.3456 4.03759 21.4425 4.0172C21.4725 4.01089 21.4942 3.99762 21.4505 4.0172C21.4037 4.03812 21.3574 4.05156 21.3096 4.07008C21.154 4.13042 21.0083 4.20693 20.9108 4.3466C20.8946 4.36982 20.8267 4.42256 20.8267 4.45332C20.8267 4.45848 20.8783 4.4237 20.8783 4.42369C20.9341 4.38969 20.9944 4.3639 21.0529 4.33513C21.1457 4.28948 21.2332 4.23132 21.3281 4.19018C21.3783 4.16846 21.4344 4.15844 21.4874 4.14654C21.5492 4.13265 21.6199 4.10895 21.683 4.10895C21.688 4.10895 21.7038 4.10321 21.6996 4.10321C21.6548 4.10321 21.6092 4.10055 21.5645 4.10353C21.5208 4.10644 21.4765 4.12474 21.4339 4.13443C21.3843 4.14571 21.3288 4.15542 21.2829 4.1784C21.2458 4.19692 21.2164 4.22882 21.1816 4.25103C21.1545 4.2683 21.1224 4.28721 21.0994 4.30964C21.0518 4.35596 21.0001 4.39209 20.9478 4.43261C20.8658 4.49613 20.8213 4.60107 20.7706 4.68906C20.7437 4.73579 20.7037 4.80056 20.7037 4.85598C20.7037 4.86468 20.7123 4.84868 20.7139 4.84674C20.7343 4.82235 20.7529 4.7965 20.7725 4.77156C20.7927 4.746 20.8123 4.72102 20.8245 4.69065C20.8393 4.65356 20.8541 4.61483 20.8668 4.5766C20.8843 4.52408 20.9118 4.48473 20.9388 4.43707C20.9498 4.41771 20.9552 4.39642 20.964 4.37591C20.9721 4.35693 20.9834 4.34428 20.9936 4.32685C21.0072 4.30379 21.0366 4.30129 21.0599 4.29212C21.1022 4.27551 21.1456 4.26141 21.1886 4.24657C21.2533 4.2242 21.3229 4.20991 21.3893 4.1905C21.4327 4.17782 21.4788 4.17035 21.5234 4.16342C21.564 4.15713 21.6097 4.16177 21.6489 4.15196C21.684 4.14318 21.7109 4.13351 21.7349 4.10353C21.7607 4.07128 21.7823 4.06308 21.8222 4.06308C21.8657 4.06308 21.8996 4.07092 21.9417 4.08028C21.9873 4.09041 22.0356 4.08601 22.0825 4.08601C22.1399 4.08601 22.1969 4.09175 22.2545 4.09175C22.2699 4.09175 22.3075 4.0938 22.2682 4.08888C22.2335 4.08454 22.1999 4.07984 22.1659 4.07136C22.0615 4.04524 21.953 4.0344 21.8452 4.0344C21.7508 4.0344 21.655 4.04086 21.5613 4.05161C21.5191 4.05644 21.4744 4.06881 21.432 4.06881" stroke="white" stroke-width="0.2" stroke-linecap="round"/>
<path d="M3.75967 48.583C3.75634 48.6497 3.73973 48.7345 3.69266 48.7851C3.62709 48.8555 3.58572 48.9331 3.53494 49.0139C3.44551 49.1562 3.37811 49.3172 3.27 49.4469C3.23089 49.4938 3.2062 49.5482 3.16536 49.5948C3.11798 49.649 3.07602 49.7069 3.02877 49.7613C3.02048 49.7709 2.99053 49.7871 3.003 49.7892C3.03558 49.7946 3.09486 49.7623 3.12155 49.7489C3.23324 49.6931 3.3779 49.6129 3.45865 49.5149C3.58594 49.3605 3.62427 49.1713 3.64112 48.9768C3.65845 48.7767 3.72644 48.5987 3.85657 48.4459C3.8757 48.4235 3.89314 48.3958 3.91327 48.3748C3.92077 48.3669 3.93463 48.442 3.93492 48.4459C3.94503 48.5824 3.90921 48.7218 3.87616 48.8526C3.83892 48.9999 3.79669 49.1448 3.74936 49.2892C3.69956 49.4411 3.63638 49.566 3.55298 49.7005C3.47523 49.8259 3.3936 49.9483 3.31433 50.0726C3.28937 50.1118 3.25762 50.1459 3.23289 50.185C3.21142 50.2189 3.20066 50.2555 3.17464 50.2866C3.13455 50.3344 3.10308 50.3868 3.0566 50.4293C3.04651 50.4386 3.02261 50.4557 3.02155 50.4716C3.01922 50.5066 3.06588 50.4171 3.08959 50.3912C3.22145 50.2472 3.38936 50.1329 3.50195 49.9716C3.63365 49.783 3.70732 49.5611 3.76946 49.3417C3.81315 49.1876 3.86246 49.038 3.93389 48.8943C3.9861 48.7894 4.05403 48.6948 4.10759 48.5907C4.15261 48.5033 4.1878 48.4106 4.22357 48.3191C4.22957 48.3038 4.25044 48.1952 4.27408 48.1918C4.27854 48.1912 4.28124 48.326 4.28336 48.3356C4.29331 48.3807 4.32213 48.383 4.35707 48.3985C4.38959 48.4129 4.33578 48.5493 4.32357 48.5737C4.28897 48.6429 4.25201 48.7124 4.21429 48.7799C4.09172 48.9992 3.90997 49.1604 3.75245 49.3531C3.59384 49.5471 3.37972 49.6918 3.17309 49.8304C3.14486 49.8493 3.1177 49.8695 3.08856 49.8871C3.08172 49.8912 3.03674 49.9231 3.07413 49.901C3.23936 49.8036 3.40563 49.6938 3.54628 49.5634C3.69167 49.4285 3.78853 49.2411 3.88441 49.0686C3.93295 48.9812 3.98785 48.8936 4.05347 48.8181C4.13029 48.7296 4.18997 48.6341 4.27511 48.5531C4.28672 48.5421 4.36814 48.4267 4.3715 48.4737C4.37699 48.5506 4.34769 48.6247 4.3081 48.6892C4.24618 48.79 4.17223 48.8823 4.10089 48.9763C4.0226 49.0795 3.95362 49.1777 3.86173 49.2696C3.76657 49.3647 3.66032 49.4352 3.55246 49.5149C3.44151 49.5969 3.34182 49.6824 3.22155 49.7515C3.16195 49.7858 3.07746 49.806 3.02671 49.8541C3.02459 49.8561 3.17869 49.8017 3.20763 49.7886C3.30529 49.7445 3.40777 49.7028 3.48545 49.6273C3.5394 49.5749 3.59579 49.522 3.65349 49.4737C3.81471 49.3387 3.91884 49.1487 4.01378 48.9639C4.02283 48.9463 4.09653 48.8142 4.0576 48.9046C4.00775 49.0205 3.93709 49.1262 3.88235 49.2397C3.83052 49.3471 3.76702 49.4485 3.70813 49.552C3.66053 49.6358 3.60821 49.7198 3.52978 49.7778C3.45104 49.836 3.36098 49.8604 3.27618 49.9062C3.19993 49.9473 3.12093 49.9906 3.04939 50.0397C2.99092 50.0797 3.07099 50.0293 3.09011 50.0134C3.12047 49.9881 3.17135 49.9739 3.20814 49.9603C3.28735 49.9309 3.25105 49.8585 3.30969 49.8129C3.35112 49.7806 3.46154 49.8726 3.48133 49.9051C3.55351 50.0237 3.5891 50.1646 3.64833 50.2896C3.69954 50.3977 3.75485 50.472 3.85297 50.5407C3.88557 50.5635 3.92823 50.5771 3.96688 50.585C4.00638 50.5931 3.96959 50.5713 3.95863 50.5582C3.88088 50.4649 3.80297 50.3723 3.7272 50.2768C3.68935 50.229 3.64577 50.1869 3.60813 50.1397C3.56987 50.0917 3.54392 50.0344 3.50401 49.9881C3.47042 49.9492 3.4514 49.9003 3.41638 49.8634C3.38498 49.8303 3.35244 49.7895 3.34319 49.7433C3.33344 49.6945 3.39927 49.5806 3.4535 49.6304C3.49955 49.6727 3.49645 49.746 3.50452 49.8026C3.51558 49.8799 3.52815 49.9593 3.55349 50.0335C3.56533 50.0681 3.58107 50.0992 3.59267 50.134C3.61373 50.1972 3.61065 50.2861 3.61431 50.352C3.6195 50.4454 3.59267 50.5407 3.59267 50.635C3.59267 50.7251 3.63177 50.555 3.63493 50.5386C3.66506 50.3826 3.64833 50.2138 3.64833 50.0551C3.64833 49.9445 3.63906 49.8346 3.63906 49.7242C3.63906 49.7065 3.64401 49.686 3.62978 49.6732C3.60767 49.6533 3.6205 49.5922 3.6205 49.5644C3.6205 49.527 3.6205 49.4895 3.6205 49.4521C3.6205 49.3837 3.62306 49.5891 3.61638 49.6572C3.59613 49.8635 3.53016 50.1407 3.62205 50.3376C3.6448 50.3863 3.69815 50.4406 3.73596 50.4798C3.77103 50.5162 3.80423 50.5511 3.85193 50.569C3.86865 50.5753 3.89776 50.6051 3.89884 50.5685C3.89981 50.5354 3.89428 50.5188 3.8808 50.4896C3.83923 50.3996 3.82569 50.2912 3.7741 50.2077C3.74847 50.1662 3.70585 50.1355 3.67204 50.1005C3.62218 50.0488 3.57308 49.9953 3.52411 49.9428C3.45882 49.8726 3.38021 49.7916 3.36587 49.6933C3.35835 49.6417 3.34379 49.5478 3.36896 49.4974C3.38106 49.4732 3.42582 49.4037 3.46277 49.4201C3.51882 49.445 3.55105 49.594 3.56277 49.6428C3.59272 49.7673 3.60167 49.8972 3.62514 50.0232C3.64735 50.1424 3.65534 50.2543 3.69266 50.3706C3.71761 50.4483 3.75095 50.565 3.81534 50.6221C3.84233 50.646 3.88695 50.6788 3.92513 50.6788C3.95514 50.6788 3.90229 50.5373 3.89884 50.5242C3.86584 50.399 3.85529 50.2758 3.78235 50.1644C3.75661 50.1251 3.73656 50.1075 3.72153 50.0613C3.69843 49.9904 3.68626 49.9286 3.68545 49.8531C3.68476 49.7895 3.67961 49.7221 3.6906 49.6593C3.69736 49.6206 3.69255 49.5607 3.70864 49.5252C3.71959 49.5011 3.71328 49.4668 3.71328 49.4407C3.71328 49.3744 3.72184 49.4469 3.71689 49.4794C3.68435 49.6927 3.62749 49.8906 3.6772 50.1087C3.7149 50.2742 3.78234 50.432 3.86173 50.5809C3.88319 50.6211 3.98769 50.6276 4.02873 50.6334" stroke="white" stroke-width="0.2" stroke-linecap="round"/>
<path d="M15.732 52.7719C15.671 52.7719 15.6177 52.7632 15.566 52.797C15.5392 52.8146 15.4966 52.8201 15.4653 52.8287C15.3713 52.8547 15.2608 52.8374 15.1641 52.839C15.148 52.8393 15.0549 52.8558 15.0773 52.8558C15.1653 52.8558 15.2626 52.8453 15.3468 52.8185C15.4268 52.793 15.5019 52.7442 15.5772 52.7066C15.6356 52.6774 15.7072 52.6574 15.759 52.6171C15.7762 52.6037 15.8171 52.5737 15.829 52.5555C15.8292 52.5551 15.7546 52.5659 15.7367 52.5742C15.6811 52.5995 15.6646 52.656 15.6229 52.7C15.596 52.7284 15.5743 52.7275 15.5455 52.7467C15.5172 52.7655 15.4786 52.8137 15.4802 52.7551C15.4828 52.6617 15.5833 52.6248 15.6462 52.5788C15.6884 52.548 15.732 52.4977 15.732 52.4427C15.732 52.3995 15.7141 52.4699 15.6984 52.4865C15.6593 52.5279 15.6223 52.5661 15.5791 52.604C15.5388 52.6393 15.4959 52.6702 15.4522 52.701C15.4223 52.722 15.4171 52.747 15.3963 52.7747C15.374 52.8041 15.3434 52.847 15.3086 52.8595C15.2075 52.8958 15.1052 52.8883 14.999 52.8894C14.9237 52.8901 14.8489 52.8978 14.7733 52.8978C14.7248 52.8978 14.7979 52.8935 14.8069 52.8922C14.9059 52.877 15.0033 52.8547 15.0997 52.8278C15.1832 52.8046 15.2594 52.7695 15.3459 52.7551C15.4008 52.7459 15.4575 52.7422 15.511 52.7262C15.5606 52.7113 15.6065 52.6873 15.6555 52.6711C15.689 52.6601 15.7209 52.6549 15.7525 52.6394C15.7771 52.6274 15.7947 52.6157 15.7553 52.6329C15.4728 52.7561 15.1621 52.7751 14.8563 52.7719C14.6391 52.7696 14.4176 52.7486 14.2045 52.7131" stroke="white" stroke-width="0.2" stroke-linecap="round"/>
<path d="M36.1423 19.6101C36.1423 19.6439 36.1359 19.6683 36.1107 19.6935C36.0948 19.7094 36.073 19.7282 36.0993 19.697C36.1012 19.6948 36.1311 19.6133 36.1169 19.6654C36.1118 19.6839 36.088 19.702 36.087 19.7207C36.0853 19.7512 36.0584 19.7714 36.0554 19.7997C36.0545 19.8078 36.0404 19.8664 36.0361 19.8691C35.9941 19.8953 35.9939 19.9625 35.9724 20.0013C35.9132 20.1079 35.8408 20.1982 35.7753 20.3011C35.7048 20.4119 35.6207 20.5202 35.6207 20.6612" stroke="white" stroke-width="0.2" stroke-linecap="round"/>
<path d="M19.9916 8.35313C20.0969 8.35313 20.2266 8.02537 20.2761 7.9265C20.4332 7.61212 20.7232 7.34546 21.0069 7.14435C21.134 7.05417 21.2711 6.94161 21.3861 6.83623C21.5577 6.67887 21.7703 6.63735 21.9549 6.50441C22.2786 6.27132 22.6527 6.08968 22.9899 5.87237C23.309 5.66674 23.5958 5.42874 23.938 5.26008C24.3305 5.06657 24.7833 4.99069 25.202 4.8769C25.8282 4.70675 26.5299 4.62013 27.1732 4.62013" stroke="white" stroke-width="0.2" stroke-linecap="round"/>
<path d="M20.1009 8.17094C20.018 8.25383 19.9385 8.34049 19.8886 8.44777C19.8547 8.52066 19.8235 8.5857 19.782 8.65472C19.7487 8.70993 19.7041 8.76813 19.6852 8.83032C19.6714 8.87595 19.6655 8.9262 19.6655 8.97366C19.6655 9.03917 19.7608 8.88701 19.7667 8.8778C19.8142 8.80358 19.8573 8.72984 19.8993 8.65293C19.9351 8.58757 19.9611 8.5174 19.997 8.45225C20.0235 8.40408 20.0592 8.36315 20.0928 8.3201C20.1015 8.30901 20.1424 8.22953 20.1081 8.26097C20.0281 8.33427 19.9386 8.38058 19.8711 8.46972C19.7637 8.61163 19.6826 8.76218 19.6144 8.92707C19.5665 9.04306 19.5189 9.1844 19.5127 9.31052C19.5115 9.33575 19.5117 9.36141 19.5123 9.38667C19.5129 9.41161 19.5257 9.37795 19.5298 9.37144C19.5911 9.27335 19.6664 9.19076 19.6986 9.07669C19.7571 8.86996 19.815 8.66155 19.8671 8.45314" stroke="white" stroke-width="0.2" stroke-linecap="round"/>
<path d="M22.7065 3.68166C22.5657 3.74424 22.4072 3.7867 22.2602 3.83481C21.9063 3.95062 21.5892 4.16786 21.2683 4.35169C20.7269 4.66179 20.1924 5.07498 19.744 5.50868C19.6997 5.55151 19.5756 5.68386 19.6291 5.65345C19.871 5.51618 20.1035 5.3616 20.3422 5.21913C20.7973 4.94761 21.2606 4.68968 21.7242 4.43305C22.1032 4.2232 22.4993 4.03361 22.8596 3.79174C22.9338 3.74191 23.0059 3.68893 23.0798 3.63859C23.0995 3.62513 23.1193 3.61166 23.1396 3.5991C23.1745 3.57757 23.1615 3.59035 23.1396 3.61226C22.8899 3.862 22.618 4.09553 22.3332 4.30383C21.9342 4.59559 21.5124 4.85589 21.1056 5.13658C20.8235 5.33125 20.5129 5.5174 20.2585 5.74917C19.8434 6.1274 21.1215 5.02995 21.565 4.6855C21.9864 4.35827 22.4031 4.0264 22.8094 3.68046C22.912 3.59306 23.0604 3.46786 23.1623 3.36818C23.2079 3.32363 23.3302 3.20786 23.2664 3.20786C23.2014 3.20786 23.1503 3.267 23.0965 3.30357C22.8893 3.44463 22.9354 3.42337 22.7089 3.57398C22.1671 3.93421 21.5804 4.21981 21.029 4.56466C20.6408 4.80744 20.2648 5.06852 19.9127 5.36151C19.7784 5.47331 19.4003 5.83687 19.5239 5.71328C19.6164 5.62072 19.7243 5.54832 19.8313 5.47279C20.338 5.11536 20.8491 4.75425 21.3856 4.44262C21.7692 4.2198 22.1687 4.02881 22.582 3.86831C22.644 3.84427 23.0638 3.61764 22.9458 3.84558C22.7835 4.15907 22.5454 4.44793 22.3045 4.70345C21.835 5.20139 21.2983 5.63821 20.7395 6.03154C20.5305 6.17863 20.3159 6.32121 20.0946 6.44911C19.9892 6.50997 19.8929 6.56229 20.0383 6.44552C20.4772 6.09321 20.9641 5.79362 21.4394 5.49432C22.0573 5.10524 22.6722 4.71455 23.2808 4.31101C23.6128 4.0909 23.9422 3.86292 24.2882 3.66491C24.4938 3.54729 24.2466 3.77167 24.214 3.8037C23.3025 4.70074 22.186 5.39502 21.1391 6.12008C20.8385 6.32824 20.5373 6.53611 20.2274 6.73028C20.0519 6.84021 20.1152 6.75317 20.1975 6.61781C20.761 5.69064 21.6522 4.93327 22.5462 4.33733C22.7595 4.19508 22.9785 4.06217 23.197 3.92813C23.4607 3.76642 23.0941 4.03453 23.0654 4.05496C22.066 4.76624 21.062 5.47112 20.0575 6.17512C19.9288 6.26534 19.8057 6.36186 19.6794 6.45509C19.6239 6.49607 19.7553 6.33903 19.8026 6.28878C20.5415 5.50378 21.512 5.00521 22.4995 4.60773C22.6006 4.56705 22.7102 4.52206 22.8166 4.49407C22.9184 4.46727 22.7019 4.67204 22.6299 4.74892C22.2724 5.13088 21.8968 5.48829 21.4921 5.81976C21.1674 6.08565 20.8643 6.38457 20.5337 6.64174C20.523 6.65008 20.4863 6.65596 20.493 6.64414C20.526 6.5857 20.6429 6.45134 20.6749 6.41681C21.0595 6.00134 21.5385 5.6855 22.0018 5.3663C22.4298 5.07138 22.8608 4.78643 23.2353 4.42348C23.2504 4.40891 23.4352 4.20809 23.4016 4.23443C22.885 4.64033 22.3641 5.02639 21.8067 5.37587C21.5546 5.53397 21.3063 5.69946 21.0494 5.84968C21.0354 5.85783 20.8639 5.9779 20.8639 5.93582C20.8639 5.83901 20.9557 5.73953 21.0123 5.6726C21.2564 5.38394 21.5415 5.13491 21.851 4.91882C22.2915 4.61133 22.7512 4.32773 23.2138 4.05496C23.279 4.01654 23.4405 3.87022 23.4088 3.9389C23.361 4.0424 23.2219 4.14011 23.142 4.2105C22.8263 4.48871 22.5103 4.76895 22.1872 5.03846C21.636 5.49833 21.0566 5.93459 20.548 6.44313C20.5436 6.44756 20.4327 6.56571 20.4882 6.47543C20.7048 6.12349 21.0347 5.82848 21.3569 5.57688C21.7488 5.2708 22.1772 5.02635 22.5988 4.76567C22.8359 4.61908 23.0546 4.4521 23.2832 4.29426C23.5578 4.10464 22.7953 4.75111 22.5318 4.95591C22.0808 5.30642 21.6202 5.64598 21.163 5.98847C21.101 6.0349 20.7774 6.32641 20.6773 6.28998C20.6131 6.26666 20.8359 5.93894 20.8364 5.93821C21.2105 5.38851 21.6931 4.921 22.1896 4.4833C22.53 4.18325 22.9037 3.91074 23.209 3.57278C23.2408 3.53756 23.3093 3.46288 23.3334 3.41006C23.3547 3.36349 23.2362 3.44593 23.1946 3.47587C22.5504 3.94014 21.8852 4.37227 21.2348 4.82788C21.1106 4.91491 20.9476 5.08045 20.7993 5.13658C20.7286 5.16331 20.8191 4.96064 20.822 4.95591C21.0113 4.6521 21.2721 4.44633 21.5674 4.25597C21.6268 4.21768 21.7491 4.1151 21.6368 4.24759C21.4542 4.46305 21.2732 4.68057 21.1104 4.91164C21.0811 4.9532 20.7483 5.51702 20.8531 5.50748C21.1618 5.47942 21.4658 5.34904 21.7565 5.25144C22.0469 5.15393 22.381 5.08414 22.6419 4.91642C22.645 4.91439 22.743 4.83388 22.6682 4.86976C22.5488 4.92706 22.4218 4.96346 22.2997 5.01453C21.8955 5.1836 21.4263 5.37567 21.0841 5.65345C21.0506 5.68059 21.0203 5.71114 20.9931 5.74439C20.9761 5.76524 21.0612 5.5837 21.0673 5.57568C21.2425 5.34677 21.495 5.17143 21.7325 5.01453C22.1452 4.74203 22.5837 4.52275 23.0463 4.34929C23.0682 4.34108 23.4579 4.16381 23.489 4.20572C23.547 4.28387 23.2892 4.49652 23.2569 4.52398C22.833 4.88332 22.3345 5.01073 21.839 5.22751C21.7827 5.25214 21.711 5.32808 21.7158 5.24426C21.7223 5.13016 21.9031 5.06151 21.9814 5.01453C22.0786 4.95621 22.2942 4.77763 22.4193 4.77763C22.4726 4.77763 22.3381 4.84688 22.2949 4.87814C22.203 4.94462 22.0997 4.99116 22.0065 5.05521C21.9569 5.08937 21.8158 5.19105 21.8462 5.13897C21.8996 5.04737 22.1009 4.98036 22.186 4.94275C22.5847 4.76658 23.0139 4.65834 23.4315 4.53834C23.8209 4.42646 24.2114 4.32167 24.6041 4.22247C24.691 4.2005 24.775 4.177 24.8649 4.177C24.9337 4.177 24.9977 4.15546 25.0659 4.15546C25.0779 4.15546 25.1712 4.14637 25.1234 4.16982C24.9515 4.25415 24.7545 4.30407 24.5742 4.36485C24.0836 4.53019 23.5886 4.66053 23.1229 4.8901C23.094 4.90433 22.9599 4.94633 22.9506 4.993C22.9477 5.00721 22.9794 5.00171 22.9936 4.99898C23.1398 4.971 23.2853 4.92153 23.4292 4.88532C24.0792 4.72167 24.761 4.62521 25.383 4.36604C25.6425 4.25791 25.28 4.39647 25.2203 4.42108C24.8323 4.58109 24.4395 4.72812 24.0513 4.88771C24.0193 4.90088 23.9379 4.92734 24.0322 4.90446C24.3063 4.83792 24.5886 4.80618 24.8661 4.75729C25.1928 4.69974 25.528 4.55572 25.8556 4.54312C25.9534 4.53936 25.9105 4.51999 25.8353 4.51082C25.5427 4.47515 25.281 4.55166 25.0049 4.63764C24.9486 4.6552 24.7092 4.72505 24.92 4.67952C25.1132 4.63779 25.3029 4.57344 25.4871 4.50244C25.4995 4.49765 25.7376 4.41591 25.6714 4.4139C25.3775 4.405 25.0905 4.40109 24.7979 4.37322C24.7151 4.36534 24.6191 4.3637 24.5359 4.37203C24.4487 4.38075 24.3035 4.40829 24.2356 4.46655C24.1267 4.5599 24.297 4.52159 24.3792 4.52159C24.4843 4.52159 24.6089 4.50057 24.7106 4.53235C24.7759 4.55278 24.8362 4.56466 24.9044 4.56466C25.058 4.56466 25.2115 4.56466 25.3651 4.56466C25.5013 4.56466 25.6351 4.54618 25.7695 4.54312C25.8809 4.54059 25.9728 4.5862 26.077 4.5862C26.1 4.5862 26.2029 4.55042 26.138 4.52637C26.0706 4.50141 25.9559 4.52826 25.8903 4.53475C25.6733 4.55621 25.4588 4.58129 25.2406 4.5862C24.9863 4.59191 24.7386 4.64293 24.488 4.68191C24.4213 4.69229 24.2786 4.6672 24.2559 4.74652C24.2301 4.83687 24.03 4.90511 23.9508 4.93557C23.8456 4.97602 24.0616 4.98138 24.0836 4.98462C24.1531 4.99484 24.2207 4.99539 24.2906 4.99539C24.3771 4.99539 24.6348 4.98458 24.5491 4.97385C24.3188 4.94507 24.0146 4.98625 23.8048 5.09111C23.75 5.11854 23.64 5.1336 23.5775 5.14495C23.4307 5.17164 23.2724 5.23828 23.142 5.31365C23.0073 5.39146 22.8648 5.45226 22.728 5.52064C22.4603 5.6545 22.1772 5.76534 21.8977 5.87839C21.5049 6.03725 21.1771 6.31883 20.9237 6.65371C20.8559 6.74336 20.7746 6.8196 20.6952 6.89899C20.6414 6.95279 20.5352 7.03333 20.5109 7.10598C20.4544 7.27566 20.2342 7.40674 20.2082 7.57978C20.1976 7.65039 20.1464 7.76922 20.1173 7.83822C20.0965 7.88769 19.9459 8.16252 20.0168 8.03085C20.0996 7.87715 20.2513 7.7667 20.2513 7.57978C20.2513 7.4959 20.3756 7.37276 20.4356 7.32134C20.5472 7.2257 20.6559 7.12468 20.7634 7.02462C20.8156 6.97602 20.867 6.92806 20.9189 6.87984C20.9819 6.82137 21.0652 6.78184 21.1223 6.71951C21.2425 6.58842 21.438 6.54585 21.5579 6.40723C21.675 6.27181 21.8518 6.23198 22.0089 6.16794C22.3022 6.04847 22.6566 5.91913 22.8788 5.68456C23.1029 5.448 23.484 5.37162 23.7737 5.23708C23.9811 5.14081 24.2555 5.01693 24.4821 5.01693C24.5545 5.01693 24.5805 4.97481 24.4773 4.97385C24.1207 4.97055 23.7943 5.05003 23.4555 5.15333C23.2967 5.20173 23.1416 5.31955 22.9984 5.20238C22.9624 5.17287 22.8695 5.18642 22.8261 5.18922C22.6599 5.19994 22.4502 5.25274 22.2997 5.32801C22.1727 5.39149 22.0565 5.49917 21.979 5.61995C21.8606 5.8044 21.784 6.03693 21.5902 6.16196C21.2972 6.351 20.9718 6.48434 20.6725 6.66328C20.5146 6.75764 20.2639 6.89855 20.1975 7.08444C20.1809 7.13085 20.1743 7.18236 20.1604 7.23041C20.1439 7.28706 20.1436 7.34407 20.1436 7.4027C20.1436 7.42982 20.1194 7.49619 20.1436 7.48406C20.2049 7.45342 20.2457 7.25718 20.2728 7.19212C20.3041 7.11718 20.2934 7.02416 20.3279 6.95522C20.3706 6.86979 20.4418 6.83172 20.5241 6.78771C20.6565 6.71692 20.7713 6.61227 20.8878 6.5197C20.9808 6.44589 21.0545 6.33627 21.1391 6.25169C21.2712 6.11957 21.4138 5.98205 21.5866 5.90352C21.7335 5.83674 21.9068 5.81406 22.0616 5.77071C22.303 5.70312 22.5014 5.56805 22.7328 5.48595C22.9384 5.41298 23.0985 5.28322 23.2868 5.17965C23.3623 5.1381 23.4468 5.10546 23.5249 5.06957C23.5758 5.04617 23.6675 5.0659 23.6924 4.99539C23.7004 4.97274 23.0735 5.06129 23.0247 5.07316C22.8781 5.10883 22.5992 5.17897 22.5127 5.3304C22.4514 5.43752 22.3436 5.51286 22.2686 5.61038C22.1248 5.7973 21.9452 5.91486 21.7565 6.0459C21.6979 6.08659 21.8278 5.91427 21.8594 5.89394C22.1595 5.70104 22.4882 5.52062 22.8201 5.38784C22.9467 5.33723 23.3204 5.18763 23.2114 5.26938C23.0505 5.39005 22.823 5.40525 22.6395 5.4692C22.4511 5.53481 22.2713 5.65309 22.1465 5.809C21.9972 5.99561 21.8388 6.11988 21.6057 6.20024C21.5051 6.23494 21.4018 6.26031 21.3018 6.29716C21.2476 6.31715 21.089 6.35066 21.1439 6.36895C21.2171 6.39335 21.4803 6.2225 21.5483 6.19546C21.7124 6.13012 21.8821 6.08088 22.046 6.01479C22.3651 5.88615 22.6213 5.75221 22.8991 5.55773C22.9048 5.55376 22.96 5.5316 22.9362 5.535C22.8337 5.54965 22.7328 5.57908 22.6323 5.6032C22.3777 5.6643 22.1158 5.71463 21.8594 5.76592C21.6615 5.80549 22.182 5.5169 22.3667 5.43569C22.5601 5.35066 22.755 5.25963 22.9577 5.19879C22.9959 5.18733 23.0021 5.18159 23.0295 5.15692C23.2869 4.92529 23.611 4.71539 23.8647 4.46176C23.9043 4.4221 23.9444 4.32708 23.8467 4.36126C23.7848 4.38293 23.6515 4.48448 23.6541 4.55987C23.6581 4.6771 23.9909 4.76192 23.8551 4.92241C23.7722 5.02037 23.6643 5.07688 23.5847 5.1629C23.4515 5.30675 23.3008 5.44055 23.1276 5.535C22.8837 5.66805 22.6732 5.85618 22.4038 5.95497C22.2583 6.00831 22.1306 6.06745 21.9958 6.14162C21.9486 6.16756 21.9023 6.19947 21.857 6.22537C21.821 6.24595 21.8174 6.31795 21.7792 6.34023C21.5303 6.48545 21.2469 6.63928 21.0362 6.83796C20.9844 6.88683 20.9315 6.90674 20.8854 6.96599C20.8473 7.01504 20.8005 7.05448 20.7574 7.0976C20.6238 7.23123 20.5212 7.38156 20.3422 7.46253C20.3108 7.47677 20.2439 7.5034 20.2202 7.52714C20.1932 7.55417 20.3858 7.43023 20.4212 7.40749C20.5469 7.32667 20.647 7.05233 20.639 6.91215C20.6304 6.76255 20.1697 7.12794 20.2764 7.22802C20.395 7.33919 20.4415 7.6028 20.3111 7.70421C20.2858 7.72394 20.3181 7.5361 20.3291 7.51756C20.4089 7.38319 20.5483 7.29354 20.6342 7.16341C20.7435 6.99766 20.9545 6.94847 21.0697 6.80446C21.1063 6.75874 21.2476 6.72031 21.3018 6.69678C21.4302 6.64103 21.5455 6.59025 21.6632 6.51252C21.7706 6.44155 21.9368 6.3709 22.0185 6.27562C22.0465 6.24291 22.2107 6.20369 22.0508 6.24691C21.8833 6.29218 21.7126 6.32729 21.5459 6.37493C21.4843 6.39253 21.419 6.43389 21.3545 6.43834C21.2465 6.44579 21.086 6.47269 21.0709 6.60824C21.0607 6.70019 21.1207 6.9214 21.0218 6.96479C21.0029 6.9731 20.9014 7.04076 20.8986 7.0282C20.8645 6.87481 21.3732 6.69927 21.4681 6.65371C21.744 6.52131 22.0084 6.36435 22.2841 6.23374C22.3577 6.19889 22.4587 6.03193 22.5079 5.96454C22.6657 5.74827 22.8769 5.57875 23.1264 5.4692C23.3794 5.35816 23.6057 5.18395 23.8455 5.04804C23.9912 4.9655 24.0988 4.97385 24.2667 4.97385C24.4113 4.97385 24.6317 5.01477 24.7572 4.94035C24.8211 4.9025 24.9046 4.87184 24.9583 4.8231C25.0124 4.77391 25.1263 4.78058 25.1952 4.75849C25.2723 4.73375 25.342 4.68795 25.4201 4.67234" stroke="white" stroke-width="0.2" stroke-linecap="round"/>
<path d="M24.451 4.6508C24.263 4.65935 24.0632 4.66989 23.8802 4.71661C23.8299 4.72948 23.6847 4.77763 23.7367 4.77763C23.8994 4.77763 24.0898 4.69241 24.2404 4.64123C24.3508 4.60373 24.6146 4.51023 24.3959 4.67952C24.1224 4.89128 23.8572 5.11119 23.5955 5.33758C23.4756 5.44129 23.3828 5.54479 23.3011 5.67977C23.263 5.7428 23.238 5.75276 23.1707 5.77071C23.0512 5.80257 22.9441 5.85576 22.8309 5.89514C22.5834 5.98124 23.3017 5.6618 23.5488 5.57448C23.6442 5.54079 23.7056 5.53187 23.7618 5.44766" stroke="white" stroke-width="0.2" stroke-linecap="round"/>
<path d="M24.2954 5.02861C23.9734 5.19908 23.6863 5.42726 23.3875 5.63513C23.2387 5.73863 23.0729 5.85231 22.9055 5.92407C22.7855 5.97551 22.6908 6.06958 22.5792 6.12708C22.4822 6.17704 22.3818 6.22796 22.2902 6.28899C22.1577 6.37733 21.9965 6.41159 21.8643 6.49573C21.7563 6.56443 21.6165 6.61333 21.5268 6.70994C21.4319 6.8121 21.2997 6.91192 21.1893 6.99639C21.1 7.06468 21.0662 7.1844 20.9825 7.24797C20.881 7.32516 20.8121 7.55251 20.6749 7.58299C20.6032 7.59892 20.4712 7.74045 20.4271 7.7972C20.3523 7.89333 20.2928 8.01246 20.2104 8.10482C20.16 8.16124 20.1244 8.25736 20.0809 8.32402C20.0387 8.38843 19.9982 8.46979 19.9737 8.54322C19.9494 8.61618 19.8945 8.68572 19.8517 8.74996C19.803 8.82295 19.7789 8.9108 19.7334 8.98659C19.5458 9.29928 19.4283 9.65637 19.3411 10.0054" stroke="white" stroke-width="0.2" stroke-linecap="round"/>
<path d="M12.4535 52.3556C12.8105 52.3556 13.17 52.3704 13.5263 52.3531C14.1175 52.3242 14.6591 52.0404 15.2071 51.8531C16.0181 51.5758 16.7563 51.0826 17.4683 50.6145C18.1103 50.1924 18.7433 49.7309 19.3476 49.2553C19.5286 49.1128 19.943 48.5845 19.8701 48.803C19.7351 49.208 19.3958 49.5998 19.1441 49.9386C18.9766 50.1641 18.8643 50.3767 18.6642 50.5768C18.4106 50.8304 18.168 51.0997 17.8803 51.3154C17.4691 51.6239 17.0825 51.7385 16.6241 51.9486C16.3072 52.0938 16.0426 52.2339 15.7096 52.3355C15.2975 52.4612 14.8797 52.509 14.481 52.6721C14.0995 52.8282 13.7305 53.0074 13.3429 53.147C12.916 53.3007 14.2327 52.9385 14.6444 52.7475C15.1386 52.5181 15.6194 52.2441 16.1141 52.0214C16.1824 51.9907 16.2707 52.0134 16.3327 51.9737C16.488 51.8743 15.9866 51.9826 15.9809 51.9837C15.4769 52.0845 14.8926 52.2521 14.4635 52.5465C14.264 52.6834 13.9421 52.7953 13.7901 52.9887C13.7593 53.028 13.7025 53.0951 13.7952 53.059C14.2662 52.8759 14.7298 52.6903 15.2122 52.5365C15.7615 52.3612 16.2859 52.1625 16.7648 51.838C16.915 51.7363 17.1213 51.5585 16.7899 51.6848C16.3395 51.8564 15.8849 52.0456 15.4383 52.23C14.9984 52.4116 14.6056 52.5148 14.1469 52.6319C13.8243 52.7143 13.5306 52.917 13.2223 53.044C12.8606 53.1929 13.8276 52.53 14.1871 52.3757C14.6578 52.1735 15.1597 52.1009 15.6468 51.9511C15.9807 51.8483 16.9961 51.637 16.6467 51.637C16.1644 51.637 15.596 51.8367 15.1418 51.9938C14.7181 52.1403 14.3078 52.3724 13.9534 52.647C13.8028 52.7638 13.6587 52.8446 13.4937 52.9334C13.3393 53.0166 13.8256 52.8196 13.9886 52.755C14.5878 52.5178 15.204 52.3565 15.8227 52.1797C16.2757 52.0503 16.6673 51.925 17.0638 51.6772C17.0936 51.6586 17.2464 51.5139 17.217 51.4712C17.1734 51.4077 16.8624 51.4511 16.805 51.4511C16.5187 51.4511 16.2181 51.4367 15.9407 51.5215C15.7201 51.5889 15.4634 51.7145 15.2574 51.8229C14.4886 52.2275 16.9908 51.3904 17.6793 50.8607C17.9521 50.6509 18.186 50.4688 18.423 50.2251C18.6474 49.9942 18.463 50.0431 18.2094 50.122C17.1129 50.4636 16.302 51.2051 15.5589 52.044C15.277 52.3622 14.9056 52.6026 14.6117 52.9133C14.5201 53.0102 14.4555 53.1373 14.363 53.2299C14.2253 53.3675 14.6571 52.9713 14.8252 52.8731C15.6888 52.369 16.6232 51.7742 17.1819 50.9185C17.3742 50.6239 17.4639 50.2833 17.6316 49.9814C17.7869 49.7018 17.4776 50.1094 17.403 50.1798C16.8091 50.7405 16.306 51.3873 15.7297 51.9636C15.4752 52.2182 15.1607 52.412 14.9056 52.6671C14.8091 52.7637 14.4198 53.1575 14.7649 52.858C15.6023 52.1317 16.612 51.6387 17.3653 50.813C17.4638 50.705 17.5708 50.6061 17.619 50.4662C17.6455 50.3895 17.6484 50.2947 17.6994 50.2301C17.7405 50.1781 17.5668 50.2539 17.5085 50.2854C17.1595 50.4733 16.8153 50.6925 16.4834 50.9084C16.0111 51.2158 15.548 51.6159 15.172 52.039C15.0913 52.1297 14.5256 53.204 14.4207 53.162C14.2943 53.1115 14.4924 52.8965 14.5589 52.7777C14.8097 52.3295 15.0954 51.9641 15.4785 51.622C16.0996 51.0671 16.7709 50.5466 17.4432 50.0542C17.6962 49.8689 18.199 49.626 18.3326 49.3256C18.3394 49.3103 18.422 49.1638 18.4029 49.1648C18.2414 49.1738 18.0344 49.4461 17.9255 49.5417C17.1232 50.246 16.4279 50.8871 15.9357 51.8581C15.8074 52.1114 15.664 52.3073 15.476 52.5189C15.4346 52.5654 14.9165 53.01 15.0061 52.7978C15.1348 52.493 15.4756 52.2077 15.7197 51.9938C16.2108 51.5633 16.7458 51.1846 17.2472 50.7677C17.7612 50.3404 18.4313 49.7891 18.7848 49.2C18.8122 49.1542 18.9663 48.6972 18.8099 48.7754C18.1083 49.1262 17.4828 49.6837 16.9206 50.22C16.5206 50.6015 16.1551 50.9036 15.6945 51.2049C15.3566 51.426 14.9864 51.6356 14.6695 51.8832C14.4561 52.05 14.296 52.3076 14.0464 52.4108C13.8739 52.4822 13.7715 52.6647 13.5992 52.7375C13.4046 52.8196 13.2014 52.9261 12.9937 52.9661C12.8082 53.0018 12.2593 53.1389 12.4385 53.0791C13.1712 52.8349 13.8939 52.4556 14.569 52.0842C14.8452 51.9323 15.0152 51.6698 15.2549 51.4762C15.3789 51.376 15.766 51.1261 15.6091 51.1546C15.4738 51.1792 15.286 51.3746 15.1795 51.4461C14.704 51.7651 14.2019 52.0395 13.7324 52.3681C13.4596 52.5591 13.2009 52.7016 12.8706 52.7174C12.833 52.7191 12.745 52.8002 12.7751 52.7777C12.894 52.6885 13.0114 52.5976 13.1369 52.5164C14.0487 51.9264 15.0921 51.5869 16.0061 50.9964C16.6115 50.6052 17.167 50.1141 17.4934 49.4613C17.5687 49.3107 17.6393 49.1536 17.7271 49.0091C17.8351 48.8311 18.2735 48.3806 18.1416 48.5418C17.917 48.8163 17.7233 49.167 17.5185 49.4613C17.2311 49.8744 16.8632 50.1819 16.5086 50.5366C16.1957 50.8494 15.9159 51.2948 15.5287 51.5215C15.2513 51.6838 14.9565 51.8576 14.6921 52.0415C14.6676 52.0586 14.4725 52.2278 14.5439 52.2048C15.0175 52.0526 15.4692 51.7749 15.9106 51.5516C16.4846 51.2613 17.2378 50.95 17.4231 50.2552C17.4317 50.223 17.4497 50.1099 17.3879 50.1246C17.0299 50.2098 16.674 50.4468 16.3528 50.617C15.8602 50.878 15.5422 51.1933 15.1443 51.5566C14.9887 51.6987 14.7914 51.7872 14.6343 51.9385C14.5966 51.9748 14.5687 51.9938 14.5162 51.9938C14.474 51.9938 14.5814 51.94 14.6142 51.9134C14.7659 51.7906 14.9088 51.657 15.0664 51.5416C16.1002 50.7845 17.2546 50.2317 18.0512 49.2C18.3461 48.8181 18.556 48.4285 18.6767 47.9639C18.7532 47.6697 18.9657 47.4052 18.9657 47.0946C18.9657 47.0183 18.9726 47.2489 18.9556 47.3232C18.9019 47.5581 18.7526 47.8004 18.629 48.0041C18.3716 48.4282 18.1166 48.8886 17.8075 49.2779C17.2625 49.9642 16.4095 50.4114 15.7624 50.9939C14.754 51.9014 17.7931 49.1753 18.6391 48.1146C19.2124 47.3959 19.7337 46.6456 20.2319 45.8836C20.3449 45.7109 20.4304 45.6498 20.3224 45.8987C20.2135 46.1497 20.0329 46.3808 19.8626 46.5921C19.4635 47.0873 19.0427 47.5642 18.6491 48.0644C17.8184 49.1201 16.9621 50.1576 15.991 51.0893C15.6363 51.4297 15.2968 51.7878 14.9559 52.142C14.6513 52.4585 14.2957 52.8067 14.1067 53.2098C13.9802 53.4796 13.8535 53.6393 13.5841 53.7675C13.5128 53.8015 12.943 54.0373 12.9384 53.9635C12.9214 53.6916 13.2671 53.3306 13.4183 53.1394C13.609 52.8984 13.7786 52.647 13.961 52.4008C14.1172 52.1899 13.8435 52.3083 13.765 52.3455C13.6777 52.3869 13.5168 52.3556 13.4233 52.3556C13.1143 52.3556 12.8053 52.3556 12.4963 52.3556C12.3656 52.3556 11.5572 52.4087 12.0566 52.4008C12.3514 52.3961 12.6354 52.3103 12.9309 52.3103C13.1462 52.3103 13.3374 52.2897 13.5489 52.2551C13.7742 52.2182 13.9846 52.112 14.2122 52.0867C14.3619 52.0701 14.4405 52.0797 14.564 52.0139C14.7248 51.9281 15.0672 51.9938 15.2348 51.9938C15.5102 51.9938 15.8356 52.0389 16.1066 51.9712C16.3064 51.9212 16.5038 51.8631 16.7045 51.8129" stroke="white" stroke-width="0.2" stroke-linecap="round"/>
<path d="M82.4188 6.94584C82.4188 6.89347 82.4177 7.09774 82.4188 7.12311C82.4253 7.26501 82.5007 7.38544 82.5007 7.53675C82.5007 7.70072 82.5416 7.86596 82.5416 8.00948" stroke="white" stroke-linecap="round"/>
<path d="M81.2141 4.79214C81.18 4.82927 81.1392 4.85503 81.1032 4.88835C81.0883 4.90214 81.0706 4.92615 81.0522 4.93422C81.0336 4.94241 81.0023 4.96596 80.9892 4.98137C80.939 5.0402 80.881 5.09286 80.8417 5.16168C80.8325 5.17772 80.8465 5.1683 80.8554 5.16327C80.8956 5.14056 80.9378 5.12179 80.9777 5.0986C81.0522 5.05534 81.1262 5.00189 81.1851 4.93837C81.2527 4.86543 81.3456 4.82974 81.4425 4.80935C81.4725 4.80303 81.4942 4.78976 81.4505 4.80935C81.4037 4.83026 81.3574 4.8437 81.3096 4.86223C81.154 4.92256 81.0083 4.99908 80.9108 5.13874C80.8946 5.16196 80.8267 5.2147 80.8267 5.24546C80.8267 5.25062 80.8783 5.21584 80.8783 5.21584C80.9341 5.18184 80.9944 5.15604 81.0529 5.12727C81.1457 5.08163 81.2332 5.02347 81.3281 4.98233C81.3783 4.96061 81.4344 4.95059 81.4874 4.93868C81.5492 4.9248 81.6199 4.90109 81.683 4.90109C81.688 4.90109 81.7038 4.89536 81.6996 4.89536C81.6548 4.89536 81.6092 4.8927 81.5645 4.89568C81.5208 4.89859 81.4765 4.91688 81.4339 4.92658C81.3843 4.93786 81.3288 4.94757 81.2829 4.97054C81.2458 4.98907 81.2164 5.02096 81.1816 5.04317C81.1545 5.06044 81.1224 5.07936 81.0994 5.10179C81.0518 5.1481 81.0001 5.18423 80.9478 5.22476C80.8658 5.28828 80.8213 5.39322 80.7706 5.4812C80.7437 5.52793 80.7037 5.5927 80.7037 5.64813C80.7037 5.65682 80.7123 5.64083 80.7139 5.63889C80.7343 5.61449 80.7529 5.58865 80.7725 5.56371C80.7927 5.53814 80.8123 5.51316 80.8245 5.48279C80.8393 5.4457 80.8541 5.40697 80.8668 5.36875C80.8843 5.31623 80.9118 5.27687 80.9388 5.22922C80.9498 5.20985 80.9552 5.18856 80.964 5.16805C80.9721 5.14908 80.9834 5.13642 80.9936 5.11899C81.0072 5.09593 81.0366 5.09343 81.0599 5.08427C81.1022 5.06765 81.1456 5.05355 81.1886 5.03871C81.2533 5.01634 81.3229 5.00205 81.3893 4.98265C81.4327 4.96997 81.4788 4.96249 81.5234 4.95557C81.564 4.94927 81.6097 4.95391 81.6489 4.9441C81.684 4.93533 81.7109 4.92565 81.7349 4.89568C81.7607 4.86342 81.7823 4.85522 81.8222 4.85522C81.8657 4.85522 81.8996 4.86307 81.9417 4.87242C81.9873 4.88256 82.0356 4.87816 82.0825 4.87816C82.1399 4.87816 82.1969 4.88389 82.2545 4.88389C82.2699 4.88389 82.3075 4.88594 82.2682 4.88102C82.2335 4.87669 82.1999 4.87199 82.1659 4.8635C82.0615 4.83739 81.953 4.82655 81.8452 4.82655C81.7508 4.82655 81.655 4.83301 81.5613 4.84375C81.5191 4.84859 81.4744 4.86095 81.432 4.86095" stroke="white" stroke-width="0.2" stroke-linecap="round"/>
<path d="M75.732 53.564C75.671 53.564 75.6177 53.5554 75.566 53.5892C75.5392 53.6067 75.4966 53.6122 75.4653 53.6209C75.3713 53.6468 75.2608 53.6296 75.1641 53.6311C75.148 53.6314 75.0549 53.6479 75.0773 53.6479C75.1653 53.6479 75.2626 53.6375 75.3468 53.6106C75.4268 53.5852 75.5019 53.5364 75.5772 53.4987C75.6356 53.4695 75.7072 53.4495 75.759 53.4092C75.7762 53.3958 75.8171 53.3658 75.829 53.3476C75.8292 53.3473 75.7546 53.3581 75.7367 53.3663C75.6811 53.3917 75.6646 53.4482 75.6229 53.4922C75.596 53.5205 75.5743 53.5196 75.5455 53.5388C75.5172 53.5577 75.4786 53.6058 75.4802 53.5472C75.4828 53.4538 75.5833 53.4169 75.6462 53.371C75.6884 53.3401 75.732 53.2899 75.732 53.2348C75.732 53.1916 75.7141 53.2621 75.6984 53.2786C75.6593 53.32 75.6223 53.3582 75.5791 53.3961C75.5388 53.4314 75.4959 53.4623 75.4522 53.4931C75.4223 53.5142 75.4171 53.5392 75.3963 53.5668C75.374 53.5963 75.3434 53.6392 75.3086 53.6517C75.2075 53.6879 75.1052 53.6804 74.999 53.6815C74.9237 53.6823 74.8489 53.6899 74.7733 53.6899C74.7248 53.6899 74.7979 53.6857 74.8069 53.6843C74.9059 53.6692 75.0033 53.6468 75.0997 53.62C75.1832 53.5967 75.2594 53.5616 75.3459 53.5472C75.4008 53.5381 75.4575 53.5343 75.511 53.5183C75.5606 53.5035 75.6065 53.4795 75.6555 53.4633C75.689 53.4522 75.7209 53.4471 75.7525 53.4316C75.7771 53.4195 75.7947 53.4079 75.7553 53.4251C75.4728 53.5482 75.1621 53.5672 74.8563 53.564C74.6391 53.5617 74.4176 53.5408 74.2045 53.5053" stroke="white" stroke-width="0.2" stroke-linecap="round"/>
<path d="M84.451 5.44295C84.263 5.45149 84.0632 5.46203 83.8802 5.50876C83.8299 5.52162 83.6847 5.56978 83.7367 5.56978C83.8994 5.56978 84.0898 5.48455 84.2404 5.43338C84.3508 5.39587 84.6146 5.30237 84.3959 5.47166C84.1224 5.68342 83.8572 5.90333 83.5955 6.12973C83.4756 6.23344 83.3828 6.33693 83.3011 6.47192C83.263 6.53495 83.238 6.54491 83.1707 6.56285C83.0512 6.59472 82.9441 6.6479 82.8309 6.68728C82.5834 6.77338 83.3017 6.45394 83.5488 6.36663C83.6442 6.33294 83.7056 6.32401 83.7618 6.2398" stroke="white" stroke-width="0.2" stroke-linecap="round"/>
<path d="M71.5644 5.01781C62.3484 41.3968 55.7777 50.4915 53.6444 50.4915L65.1644 53.0178L85.6444 20.1757" stroke="#FD9C00"/>
<path d="M71.1444 5.51781C88.7444 5.51781 87.8111 15.8511 85.1444 21.0178" stroke="#FD9C00"/>
<path d="M72.4188 6.94584C72.4188 6.89347 72.4177 7.09774 72.4188 7.12311C72.4253 7.26501 72.5007 7.38544 72.5007 7.53675C72.5007 7.70072 72.5416 7.86596 72.5416 8.00948" stroke="white" stroke-linecap="round"/>
<path d="M73.237 6.86401C73.0103 6.9018 73.0175 7.09961 72.8711 7.22764C72.779 7.30824 72.7214 7.39972 72.6211 7.47992C72.4754 7.59651 72.3461 7.73226 72.2143 7.86401C72.0541 8.0242 72.0916 7.62251 72.0916 7.53674C72.0916 7.38148 72.1037 7.13117 72.2143 7.00946C72.3111 6.90294 72.1902 6.72342 72.2757 6.62082C72.3235 6.56337 72.7764 6.18631 72.4393 6.13446C72.3472 6.12028 72.207 6.46683 72.1825 6.54582C72.1368 6.69314 72.0997 6.76905 71.9507 6.84582C71.8494 6.89798 71.7844 6.99556 71.8143 6.8731C71.8448 6.74823 71.94 6.55925 72.0098 6.44582C72.0547 6.37278 72.082 6.28733 72.1529 6.23218C72.2309 6.17159 72.4194 6.20946 72.5075 6.20946C72.772 6.20946 73.0189 6.26806 73.2802 6.28673C73.6877 6.31583 74.1711 6.26476 74.5643 6.39582C75.0242 6.54911 75.5252 6.53673 76.0098 6.53673C76.2187 6.53673 76.3498 6.55709 76.5348 6.614C76.6761 6.65748 76.8387 6.58456 76.9802 6.639C77.2889 6.75771 77.6417 6.66208 77.9507 6.75037C78.2461 6.83476 78.488 6.98584 78.7825 7.05946C79.3657 7.20526 80.0296 7.13378 80.5598 7.43674C80.8066 7.57776 80.9836 7.80999 81.2371 7.93674C81.4395 8.03792 81.6088 8.21109 81.828 8.25492" stroke="#FD9C00" stroke-linecap="round"/>
<path d="M76.9189 14.1459C76.9189 14.2204 76.9014 14.2736 76.8734 14.3436C76.758 14.6321 76.699 14.9429 76.6143 15.2413C76.5309 15.5353 76.4006 15.7878 76.3052 16.0686C76.2484 16.2359 76.1629 16.3752 76.0984 16.53C75.7207 17.4365 75.5621 18.3886 75.3143 19.3368C75.2133 19.7234 75.0587 19.9668 74.8007 20.2641C74.7327 20.3425 74.65 20.4081 74.5734 20.4777C74.544 20.5045 74.591 20.3992 74.6098 20.3641C74.7828 20.0405 74.9663 19.7215 75.1439 19.4004C75.6582 18.4703 76.218 17.5768 76.8052 16.6913C77.0281 16.3553 77.2493 16.0182 77.4757 15.6845C77.5534 15.5701 77.671 15.3336 77.7916 15.2413C77.8166 15.2223 77.7847 15.626 77.778 15.6595C77.7304 15.8973 77.65 16.1254 77.5734 16.355" stroke="#FD9C00" stroke-width="5" stroke-linecap="round"/>
<path d="M75.656 19.8173C75.5814 20.1406 75.3483 20.4745 75.204 20.7661C74.5604 22.067 73.8889 23.3592 73.3908 24.7253C72.6869 26.656 72.1102 28.7376 71.7217 30.756C71.3154 32.8667 70.9437 35.0574 69.9929 37.0053C69.1555 38.721 68.399 40.4178 67.7178 42.2014C67.2143 43.5198 66.9621 45.5167 65.4823 46.1557C64.8351 46.4352 64.0731 46.7255 63.7288 47.3876C63.5214 47.7865 63.0824 48.466 62.7253 48.7041C62.0913 49.1267 62.4591 47.6574 62.5316 47.3628C62.8486 46.0744 63.5409 44.8058 64.2504 43.6917C64.8771 42.7076 65.6989 41.8983 66.1977 40.8304C67.4248 38.2029 67.0434 35.102 68.3238 32.5046C68.7969 31.5449 69.6013 30.8314 70.1519 29.9314C70.623 29.1614 70.8867 28.2972 71.2647 27.4873C71.4428 27.1056 71.4555 26.6287 71.5925 26.2255C71.7591 25.7355 71.9243 25.2456 72.0744 24.7502C72.3589 23.8111 72.6832 22.8991 72.8891 21.9385C73.1468 20.7359 73.086 19.4138 73.4206 18.2426C73.5826 17.6756 73.5081 17.0643 73.6392 16.484C73.7408 16.0339 73.802 15.5679 73.9174 15.1229C74.2421 13.8706 74.6419 12.6416 74.8314 11.3624C74.8724 11.0861 74.8997 10.7017 74.8314 10.4285C74.7833 10.2359 74.5341 9.6484 74.3645 9.55418C73.8147 9.24878 73.2252 9.74086 72.9338 10.1155C72.8206 10.2611 72.7947 10.6535 72.7947 10.8358C72.7947 11.2995 72.6903 11.6709 72.6258 12.1224C72.4897 13.0754 72.3866 14.1091 72.1191 15.0285C71.9576 15.5838 71.9401 16.2315 71.8608 16.8069C71.7843 17.3613 71.5716 17.95 71.5428 18.4959C71.4849 19.5976 70.757 20.5905 70.5791 21.6752C70.2934 23.4179 69.7516 25.1213 69.1733 26.7919C68.8568 27.7061 68.5755 28.6416 68.2791 29.5638C67.9639 30.5445 67.8096 31.6768 67.2508 32.5642C66.6725 33.4828 66.5082 34.5801 65.999 35.5349C65.5774 36.3254 65.4614 37.2458 65.0601 38.0485C64.7502 38.6683 64.3876 39.2968 64.1212 39.9362C63.8353 40.6224 63.3558 41.2244 63.0879 41.9133C62.8432 42.5427 62.4123 43.082 62.0646 43.647C61.7421 44.1712 61.5317 44.6799 61.2797 45.2118C61.0799 45.6337 60.9613 46.1465 60.7234 46.5332C60.5028 46.8917 60.2142 47.2969 60.0974 47.7056C60.0583 47.8424 59.8018 48.153 59.7 48.2918C59.5815 48.4534 59.4741 48.5371 59.2927 48.6097C58.9701 48.7387 58.5154 48.7817 58.3091 49.0568" stroke="#FD9C00" stroke-width="5" stroke-linecap="round"/>
<path d="M81.0211 17.5819C80.5909 17.8238 80.1689 18.6899 79.8785 19.0771C79.5727 19.4849 79.3821 19.9505 79.193 20.4233C78.5817 21.9515 78.0496 23.4531 77.2655 24.9091C76.9177 25.555 76.513 26.1479 76.2323 26.8415C75.9383 27.5678 75.7199 28.3206 75.3878 29.0323C75.039 29.7796 74.7527 30.5777 74.4241 31.3323C74.1451 31.9729 73.6777 32.6486 73.51 33.3193" stroke="#FD9C00" stroke-width="5" stroke-linecap="round"/>
<path d="M74.1359 8.01421C74.6276 8.06884 74.8973 8.56877 75.2984 8.76929C75.776 9.00811 76.3014 9.419 76.8135 9.57901C77.3794 9.75586 77.7288 10.2104 78.2491 10.4334C78.706 10.6293 78.8249 11.0322 79.188 11.3226C79.5698 11.628 79.6861 12.0242 79.8388 12.4652C79.9348 12.7427 80.1043 12.9656 80.1269 13.27C80.136 13.3927 80.2648 13.8942 80.3256 13.9853C80.8447 14.7639 81.7664 15.377 82.0047 16.33" stroke="#FD9C00" stroke-width="5" stroke-linecap="round"/>
<path d="M78.1597 9.35547C78.4795 9.75524 78.8618 10.1496 79.183 10.5626C79.3823 10.8189 79.525 11.4575 79.8586 11.5909C80.0906 11.6837 80.2753 11.8585 80.4448 12.038C80.5528 12.1524 81.0039 12.4776 81.021 12.5745C81.0599 12.7945 81.4036 13.0614 81.5178 13.2898C81.643 13.5402 81.8484 13.7381 81.9152 14.0052" stroke="#FD9C00" stroke-width="5" stroke-linecap="round"/>
<path d="M78.7856 11.8592C79.1649 11.8592 79.7368 11.7427 80.0375 11.9983C80.235 12.1661 80.6669 12.3678 80.9317 12.3957C81.1641 12.4201 81.273 12.6078 81.3986 12.7335C81.5613 12.8961 82.0537 12.9668 82.2729 13.0216" stroke="#FD9C00" stroke-width="5" stroke-linecap="round"/>
<path d="M78.3385 9.35547C78.4176 9.71132 79.1378 9.79796 79.3221 10.1205C79.4973 10.4271 79.8403 10.8069 80.1716 10.8805C80.3383 10.9176 80.5045 11.1345 80.6634 11.1438C80.798 11.1517 81.1097 11.0758 81.1999 11.1885C81.3774 11.4104 81.7465 11.5912 81.8705 11.8144C82.0168 12.0778 82.3201 12.2717 82.4318 12.5944C82.573 13.0021 82.7108 13.4152 82.8988 13.8263C83.2761 14.6518 83.3459 15.7754 83.3459 16.6877C83.3459 17.0321 83.3459 17.3765 83.3459 17.721C83.3459 18.2217 83.1793 18.4557 82.9832 18.9132C82.824 19.2846 82.432 19.5984 82.2729 19.9961C82.1236 20.3692 81.911 20.7279 81.6917 21.0691C81.4868 21.3878 81.22 21.9591 81.1999 22.321C81.1912 22.4764 81.05 22.6047 80.9713 22.7283C80.8536 22.9133 80.8907 23.1494 80.7528 23.3046C80.5785 23.5006 80.5964 23.8588 80.3951 24.0199C80.2619 24.1264 80.1365 24.4248 80.0374 24.5763C79.7671 24.9897 79.4387 25.3961 79.2327 25.8083" stroke="#FD9C00" stroke-width="5" stroke-linecap="round"/>
<path d="M75.5666 26.7024C75.5666 27.0684 75.7076 27.4158 75.7454 27.7754C75.7848 28.1489 76.1657 28.5068 76.1925 28.8683C76.2173 29.2032 76.3714 29.44 76.3714 29.7625C76.3714 30.1768 76.1712 30.3068 75.9591 30.6368C75.7675 30.9348 75.4304 31.1114 75.2984 31.4416C75.1993 31.6892 74.9559 32.1644 74.7619 32.3308C74.2333 32.7838 73.8197 33.5048 73.51 34.1241" stroke="#FD9C00" stroke-width="5" stroke-linecap="round"/>
<path d="M68.7709 33.8558C68.8211 34.3576 69.1251 34.9004 69.3571 35.3312C69.6283 35.835 69.7667 36.3452 70.0674 36.8463C70.3949 37.3921 71.4866 38.5903 70.9169 39.2606C70.2781 40.0121 69.9501 40.9108 69.4415 41.7245C69.2093 42.096 69.0499 42.6084 68.7709 42.9366C68.4246 43.3441 68.082 43.7862 67.7873 44.2282" stroke="#FD9C00" stroke-width="5" stroke-linecap="round"/>
<path d="M71.364 33.4087C71.5964 33.4378 71.8455 34.5261 71.9899 34.7699C72.217 35.153 72.437 35.6474 72.437 36.0913C72.437 36.2403 72.437 36.3893 72.437 36.5383C72.437 36.7848 72.4977 36.4477 72.596 36.3396C72.8262 36.0864 72.9735 35.7925 72.9735 35.4653" stroke="#FD9C00" stroke-width="5" stroke-linecap="round"/>
<path d="M75.1195 24.1987C75.1531 24.8033 75.6354 25.4259 75.9441 25.9175C76.1316 26.2161 76.2371 26.5053 76.4608 26.7422C76.647 26.9394 76.7949 27.3442 76.9277 27.5966C77.0704 27.8677 77.4378 28.0647 77.6232 28.3119" stroke="#FD9C00" stroke-width="5" stroke-linecap="round"/>
<path d="M80.6634 14.184C80.3342 14.1428 81.1215 12.5668 81.1801 12.3559C81.2473 12.1139 81.3337 11.8264 81.3738 11.5859C81.4162 11.3314 81.539 11.3192 81.6272 11.0743C81.7702 10.6769 82.235 10.8281 82.4319 11.0743C82.6365 11.33 82.7457 11.8006 82.9187 12.1274C83.0897 12.4502 83.101 12.8214 83.3261 13.1309C83.5095 13.3831 83.4255 13.814 83.5943 14.025C83.6839 14.137 83.6621 14.4311 83.7483 14.5864C83.8481 14.766 83.8903 15.0365 83.952 15.2371C84.06 15.5881 84.0613 16.1442 84.0613 16.5089" stroke="#FD9C00" stroke-width="5" stroke-linecap="round"/>
<path d="M64.7471 45.8377C64.7471 46.5145 64.8365 47.2013 64.8365 47.8894C64.8365 48.2044 64.8926 48.33 64.613 48.4805C64.3959 48.5974 64.1406 48.7496 64.0317 48.9673" stroke="#FD9C00" stroke-width="5" stroke-linecap="round"/>
<path d="M65.7307 45.9272C65.9931 45.96 66.1689 46.8034 66.2672 47.0002" stroke="#FD9C00" stroke-width="5" stroke-linecap="round"/>
<path d="M61.4387 47.8943C61.4387 48.2282 61.4117 48.6606 61.548 48.9673C61.693 49.2937 61.5116 49.7721 61.9802 49.7721C62.4415 49.7721 63.6741 49.7001 63.6741 50.3086" stroke="#FD9C00" stroke-width="5" stroke-linecap="round"/>
<path d="M61.5281 48.3414C61.4548 48.6715 60.6246 49.2946 60.4154 49.5039C59.9923 49.9269 59.0025 49.2356 58.4879 49.2356" stroke="#FD9C00" stroke-width="5" stroke-linecap="round"/>
<path d="M73.2418 20.4432C72.8626 20.5466 72.6113 20.8781 72.1688 20.6568C71.7653 20.4551 72.0212 20.1597 71.8558 19.862C71.692 19.5671 71.596 19.2808 71.1852 19.2808C70.9137 19.2808 70.5593 19.2277 70.5593 19.5888C70.5593 20.0952 70.4698 20.5655 70.4698 21.0493C70.4698 21.1207 70.2635 21.6287 70.2016 21.6752C70.0002 21.8262 70.0379 22.3003 69.8936 22.3905C69.6299 22.5553 69.8513 22.8263 69.7098 23.081C69.5766 23.3207 69.536 23.6661 69.4415 23.9305C69.2426 24.4875 69.0537 25.0197 68.905 25.5847C68.7374 26.2216 68.7529 26.9371 68.4629 27.5171C68.2169 28.0092 67.9683 28.7248 67.8718 29.2558C67.7682 29.8256 67.5923 30.3775 67.4098 30.9249C67.2959 31.2666 67.096 31.535 67.0024 31.8886C66.9395 32.1262 66.8371 32.5728 66.6944 32.7629C66.5234 32.991 66.5552 33.3709 66.4014 33.6273C66.2166 33.9352 66.1341 34.3205 65.9493 34.6109C65.6129 35.1396 65.1497 35.7319 64.9359 36.3198C64.5124 37.4844 64.1707 38.6252 63.6046 39.7574C63.3906 40.1852 63.3548 40.5926 63.1575 41.0092C63.0464 41.2438 62.8814 41.4998 62.7998 41.7444C62.6803 42.1031 62.3938 42.5577 62.8694 42.0822" stroke="#FD9C00" stroke-width="5" stroke-linecap="round"/>
<path d="M74.583 9.53431C74.5596 9.34705 73.9463 9.46711 73.7832 9.43992C73.5098 9.39436 73.3689 9.14135 73.1523 9.08722" stroke="#FD9C00" stroke-width="5" stroke-linecap="round"/>
<path d="M73.6889 16.8665C73.6113 16.1683 72.5945 16.1437 72.1191 15.9276C71.8443 15.8027 71.737 15.7496 71.5876 15.4806C71.4844 15.2949 71.8656 14.907 71.99 14.7205" stroke="#FD9C00" stroke-width="5" stroke-linecap="round"/>
<path d="M71.7216 18.3866C71.7123 18.3031 71.6766 18.2744 71.6322 18.2078" stroke="#FD9C00" stroke-linecap="round"/>
<path d="M70.8275 17.0454C70.7979 16.8089 70.1882 16.6878 70.0227 16.8864C69.7808 17.1767 69.5492 17.5685 69.2875 17.8303C68.9046 18.2131 69.0022 18.0241 69.0391 17.562C69.0517 17.4052 69.1736 17.3123 69.213 17.1745C69.2692 16.9777 69.2118 16.7124 69.218 16.5089C69.2586 15.1666 69.5703 19.308 69.0193 20.5326C68.9565 20.6721 68.5026 21.2925 68.5026 20.8903C68.5026 20.7356 68.3463 20.0133 68.145 20.3935C67.9273 20.8047 68.0139 21.1177 67.7177 21.4467C67.3832 21.8184 68.0016 21.3778 68.0853 21.3175C68.7152 20.864 69.3813 20.4087 69.9134 19.8372C70.6228 19.0753 70.3968 17.6519 70.3108 16.7274C70.2389 15.9546 70.291 15.1595 70.291 14.3827C70.291 14.0664 70.334 13.7013 70.132 13.4488C70.0153 13.3029 70.1242 13.1849 69.983 13.5482C69.8692 13.8407 70.1186 13.9647 70.3108 14.1641C70.867 14.7409 70.6486 16.115 70.6486 16.8268C70.6486 17.4958 70.6486 18.1647 70.6486 18.8337" stroke="#FD9C00" stroke-linecap="round"/>
<path d="M66.7143 26.3448C66.3863 26.3448 66.3567 26.6671 66.3567 26.9657C66.3567 27.237 66.1773 27.5933 66.0884 27.8599C66.0248 28.0508 65.8934 28.2551 65.7804 28.4212C65.6475 28.6168 65.6208 28.8741 65.4824 29.0472C65.1633 29.446 65.3119 30.0807 64.9707 30.4977C64.5744 30.982 64.5284 31.4675 64.3696 32.0675C64.2365 32.5703 64.0318 32.9316 64.0318 33.4584C64.0318 33.5679 63.8697 33.8197 63.9722 33.7813C64.3723 33.6313 64.8083 32.9747 65.0452 32.6437C65.3733 32.1854 65.6735 31.71 65.8996 31.1932C66.0367 30.8799 66.027 30.5449 66.1778 30.2295C66.6611 29.2189 66.7525 28.3293 66.8882 27.2439C66.9335 26.8812 66.7143 26.6851 66.7143 26.3646C66.7143 25.8762 66.5382 25.8163 66.7143 26.3448Z" stroke="#FD9C00" stroke-linecap="round"/>
<path d="M57.0572 49.9509C57.0374 50.2681 55.8054 50.5519 55.8054 50.2192C55.8054 49.834 56.0962 50.2639 55.716 50.3086C55.5853 50.324 55.4774 50.4174 55.3583 50.4676C55.0405 50.6014 55.3781 50.4874 55.6265 50.4874" stroke="#FD9C00" stroke-linecap="round"/>
<path d="M66.3826 25.2865C66.3662 25.4425 66.2413 25.5971 66.2413 25.7538C66.2413 25.7879 66.2215 25.8065 66.2146 25.8378C66.2072 25.8712 66.213 25.9115 66.213 25.9454C66.213 26.0889 66.2365 26.2251 66.213 26.3687C66.1837 26.5479 66.1569 26.6964 66.0497 26.8414C65.9925 26.9187 65.9402 27.009 65.8926 27.0912C65.8257 27.2067 65.7584 27.3144 65.7049 27.4375C65.6734 27.51 65.6533 27.5934 65.6484 27.6723C65.6448 27.7294 65.6832 27.7222 65.7324 27.732" stroke="#FD9C00" stroke-linecap="round"/>
<path d="M71.2141 4.79214C71.18 4.82927 71.1392 4.85503 71.1032 4.88835C71.0883 4.90214 71.0706 4.92615 71.0522 4.93422C71.0336 4.94241 71.0023 4.96596 70.9892 4.98137C70.939 5.0402 70.881 5.09286 70.8417 5.16168C70.8325 5.17772 70.8465 5.1683 70.8554 5.16327C70.8956 5.14056 70.9378 5.12179 70.9777 5.0986C71.0522 5.05534 71.1262 5.00189 71.1851 4.93837C71.2527 4.86543 71.3456 4.82974 71.4425 4.80935C71.4725 4.80303 71.4942 4.78976 71.4505 4.80935C71.4037 4.83026 71.3574 4.8437 71.3096 4.86223C71.154 4.92256 71.0083 4.99908 70.9108 5.13874C70.8946 5.16196 70.8267 5.2147 70.8267 5.24546C70.8267 5.25062 70.8783 5.21584 70.8783 5.21584C70.9341 5.18184 70.9944 5.15604 71.0529 5.12727C71.1457 5.08163 71.2332 5.02347 71.3281 4.98233C71.3783 4.96061 71.4344 4.95059 71.4874 4.93868C71.5492 4.9248 71.6199 4.90109 71.683 4.90109C71.688 4.90109 71.7038 4.89536 71.6996 4.89536C71.6548 4.89536 71.6092 4.8927 71.5645 4.89568C71.5208 4.89859 71.4765 4.91688 71.4339 4.92658C71.3843 4.93786 71.3288 4.94757 71.2829 4.97054C71.2458 4.98907 71.2164 5.02096 71.1816 5.04317C71.1545 5.06044 71.1224 5.07936 71.0994 5.10179C71.0518 5.1481 71.0001 5.18423 70.9478 5.22476C70.8658 5.28828 70.8213 5.39322 70.7706 5.4812C70.7437 5.52793 70.7037 5.5927 70.7037 5.64813C70.7037 5.65682 70.7123 5.64083 70.7139 5.63889C70.7343 5.61449 70.7529 5.58865 70.7725 5.56371C70.7927 5.53814 70.8123 5.51316 70.8245 5.48279C70.8393 5.4457 70.8541 5.40697 70.8668 5.36875C70.8843 5.31623 70.9118 5.27687 70.9388 5.22922C70.9498 5.20985 70.9552 5.18856 70.964 5.16805C70.9721 5.14908 70.9834 5.13642 70.9936 5.11899C71.0072 5.09593 71.0366 5.09343 71.0599 5.08427C71.1022 5.06765 71.1456 5.05355 71.1886 5.03871C71.2533 5.01634 71.3229 5.00205 71.3893 4.98265C71.4327 4.96997 71.4788 4.96249 71.5234 4.95557C71.564 4.94927 71.6097 4.95391 71.6489 4.9441C71.684 4.93533 71.7109 4.92565 71.7349 4.89568C71.7607 4.86342 71.7823 4.85522 71.8222 4.85522C71.8657 4.85522 71.8996 4.86307 71.9417 4.87242C71.9873 4.88256 72.0356 4.87816 72.0825 4.87816C72.1399 4.87816 72.1969 4.88389 72.2545 4.88389C72.2699 4.88389 72.3075 4.88594 72.2682 4.88102C72.2335 4.87669 72.1999 4.87199 72.1659 4.8635C72.0615 4.83739 71.953 4.82655 71.8452 4.82655C71.7508 4.82655 71.655 4.83301 71.5613 4.84375C71.5191 4.84859 71.4744 4.86095 71.432 4.86095" stroke="white" stroke-width="0.2" stroke-linecap="round"/>
<path d="M53.7597 49.3752C53.7563 49.4418 53.7397 49.5267 53.6927 49.5772C53.6271 49.6476 53.5857 49.7253 53.5349 49.8061C53.4455 49.9483 53.3781 50.1093 53.27 50.239C53.2309 50.286 53.2062 50.3403 53.1654 50.387C53.118 50.4411 53.076 50.499 53.0288 50.5535C53.0205 50.563 52.9905 50.5792 53.003 50.5813C53.0356 50.5867 53.0949 50.5544 53.1215 50.5411C53.2332 50.4852 53.3779 50.4051 53.4587 50.3071C53.5859 50.1526 53.6243 49.9635 53.6411 49.769C53.6584 49.5689 53.7264 49.3908 53.8566 49.238C53.8757 49.2156 53.8931 49.1879 53.9133 49.1669C53.9208 49.1591 53.9346 49.2342 53.9349 49.238C53.945 49.3745 53.9092 49.514 53.8762 49.6447C53.8389 49.7921 53.7967 49.937 53.7494 50.0813C53.6996 50.2332 53.6364 50.3581 53.553 50.4926C53.4752 50.618 53.3936 50.7405 53.3143 50.8648C53.2894 50.9039 53.2576 50.9381 53.2329 50.9772C53.2114 51.0111 53.2007 51.0477 53.1746 51.0787C53.1345 51.1265 53.1031 51.1789 53.0566 51.2215C53.0465 51.2307 53.0226 51.2478 53.0216 51.2637C53.0192 51.2988 53.0659 51.2092 53.0896 51.1833C53.2214 51.0393 53.3894 50.925 53.5019 50.7638C53.6336 50.5751 53.7073 50.3532 53.7695 50.1339C53.8131 49.9797 53.8625 49.8301 53.9339 49.6865C53.9861 49.5815 54.054 49.487 54.1076 49.3829C54.1526 49.2954 54.1878 49.2028 54.2236 49.1112C54.2296 49.0959 54.2504 48.9873 54.2741 48.9839C54.2785 48.9833 54.2812 49.1181 54.2834 49.1277C54.2933 49.1728 54.3221 49.1751 54.3571 49.1906C54.3896 49.2051 54.3358 49.3414 54.3236 49.3659C54.289 49.4351 54.252 49.5046 54.2143 49.5721C54.0917 49.7914 53.91 49.9525 53.7525 50.1452C53.5938 50.3393 53.3797 50.4839 53.1731 50.6225C53.1449 50.6415 53.1177 50.6617 53.0886 50.6792C53.0817 50.6834 53.0367 50.7152 53.0741 50.6931C53.2394 50.5957 53.4056 50.486 53.5463 50.3555C53.6917 50.2207 53.7885 50.0333 53.8844 49.8607C53.933 49.7733 53.9878 49.6857 54.0535 49.6102C54.1303 49.5218 54.19 49.4263 54.2751 49.3453C54.2867 49.3342 54.3681 49.2189 54.3715 49.2659C54.377 49.3427 54.3477 49.4169 54.3081 49.4813C54.2462 49.5821 54.1722 49.6744 54.1009 49.7684C54.0226 49.8716 53.9536 49.9698 53.8617 50.0617C53.7666 50.1569 53.6603 50.2274 53.5525 50.3071C53.4415 50.3891 53.3418 50.4745 53.2215 50.5437C53.162 50.5779 53.0775 50.5982 53.0267 50.6462C53.0246 50.6482 53.1787 50.5939 53.2076 50.5808C53.3053 50.5367 53.4078 50.495 53.4855 50.4194C53.5394 50.367 53.5958 50.3141 53.6535 50.2658C53.8147 50.1309 53.9188 49.9408 54.0138 49.7561C54.0228 49.7385 54.0965 49.6063 54.0576 49.6968C54.0078 49.8126 53.9371 49.9184 53.8823 50.0318C53.8305 50.1392 53.767 50.2406 53.7081 50.3442C53.6605 50.4279 53.6082 50.512 53.5298 50.57C53.451 50.6282 53.361 50.6525 53.2762 50.6983C53.1999 50.7395 53.1209 50.7828 53.0494 50.8318C52.9909 50.8719 53.071 50.8214 53.0901 50.8055C53.1205 50.7802 53.1714 50.7661 53.2081 50.7524C53.2874 50.7231 53.251 50.6506 53.3097 50.605C53.3511 50.5728 53.4615 50.6648 53.4813 50.6973C53.5535 50.8159 53.5891 50.9567 53.6483 51.0818C53.6995 51.1899 53.7548 51.2641 53.853 51.3328C53.8856 51.3556 53.9282 51.3692 53.9669 51.3771C54.0064 51.3852 53.9696 51.3635 53.9586 51.3503C53.8809 51.257 53.803 51.1645 53.7272 51.0689C53.6894 51.0212 53.6458 50.979 53.6081 50.9318C53.5699 50.8838 53.5439 50.8266 53.504 50.7803C53.4704 50.7413 53.4514 50.6924 53.4164 50.6555C53.385 50.6224 53.3524 50.5817 53.3432 50.5354C53.3334 50.4866 53.3993 50.3727 53.4535 50.4225C53.4996 50.4649 53.4964 50.5382 53.5045 50.5947C53.5156 50.6721 53.5281 50.7515 53.5535 50.8256C53.5653 50.8603 53.5811 50.8914 53.5927 50.9261C53.6137 50.9893 53.6107 51.0783 53.6143 51.1442C53.6195 51.2376 53.5927 51.3329 53.5927 51.4271C53.5927 51.5172 53.6318 51.3471 53.6349 51.3308C53.6651 51.1748 53.6483 51.0059 53.6483 50.8473C53.6483 50.7367 53.6391 50.6267 53.6391 50.5164C53.6391 50.4986 53.644 50.4781 53.6298 50.4653C53.6077 50.4454 53.6205 50.3844 53.6205 50.3566C53.6205 50.3191 53.6205 50.2817 53.6205 50.2442C53.6205 50.1758 53.6231 50.3813 53.6164 50.4493C53.5961 50.6556 53.5302 50.9328 53.622 51.1297C53.6448 51.1785 53.6981 51.2328 53.736 51.272C53.771 51.3084 53.8042 51.3433 53.8519 51.3612C53.8686 51.3674 53.8978 51.3973 53.8988 51.3606C53.8998 51.3275 53.8943 51.311 53.8808 51.2818C53.8392 51.1917 53.8257 51.0834 53.7741 50.9998C53.7485 50.9583 53.7058 50.9277 53.672 50.8926C53.6222 50.841 53.5731 50.7875 53.5241 50.7349C53.4588 50.6648 53.3802 50.5837 53.3659 50.4854C53.3583 50.4338 53.3438 50.3399 53.369 50.2896C53.3811 50.2654 53.4258 50.1958 53.4628 50.2122C53.5188 50.2371 53.551 50.3862 53.5628 50.4349C53.5927 50.5595 53.6017 50.6893 53.6251 50.8153C53.6474 50.9345 53.6553 51.0464 53.6927 51.1627C53.7176 51.2405 53.7509 51.3572 53.8153 51.4143C53.8423 51.4382 53.887 51.471 53.9251 51.471C53.9551 51.471 53.9023 51.3294 53.8988 51.3163C53.8658 51.1911 53.8553 51.068 53.7823 50.9565C53.7566 50.9172 53.7366 50.8996 53.7215 50.8535C53.6984 50.7825 53.6863 50.7207 53.6854 50.6452C53.6848 50.5817 53.6796 50.5142 53.6906 50.4514C53.6974 50.4128 53.6925 50.3528 53.7086 50.3174C53.7196 50.2933 53.7133 50.2589 53.7133 50.2329C53.7133 50.1665 53.7218 50.239 53.7169 50.2715C53.6844 50.4848 53.6275 50.6827 53.6772 50.9009C53.7149 51.0664 53.7823 51.2242 53.8617 51.373C53.8832 51.4133 53.9877 51.4197 54.0287 51.4256" stroke="white" stroke-width="0.2" stroke-linecap="round"/>
<path d="M65.732 53.564C65.671 53.564 65.6177 53.5554 65.566 53.5892C65.5392 53.6067 65.4966 53.6122 65.4653 53.6209C65.3713 53.6468 65.2608 53.6296 65.1641 53.6311C65.148 53.6314 65.0549 53.6479 65.0773 53.6479C65.1653 53.6479 65.2626 53.6375 65.3468 53.6106C65.4268 53.5852 65.5019 53.5364 65.5772 53.4987C65.6356 53.4695 65.7072 53.4495 65.759 53.4092C65.7762 53.3958 65.8171 53.3658 65.829 53.3476C65.8292 53.3473 65.7546 53.3581 65.7367 53.3663C65.6811 53.3917 65.6646 53.4482 65.6229 53.4922C65.596 53.5205 65.5743 53.5196 65.5455 53.5388C65.5172 53.5577 65.4786 53.6058 65.4802 53.5472C65.4828 53.4538 65.5833 53.4169 65.6462 53.371C65.6884 53.3401 65.732 53.2899 65.732 53.2348C65.732 53.1916 65.7141 53.2621 65.6984 53.2786C65.6593 53.32 65.6223 53.3582 65.5791 53.3961C65.5388 53.4314 65.4959 53.4623 65.4522 53.4931C65.4223 53.5142 65.4171 53.5392 65.3963 53.5668C65.374 53.5963 65.3434 53.6392 65.3086 53.6517C65.2075 53.6879 65.1052 53.6804 64.999 53.6815C64.9237 53.6823 64.8489 53.6899 64.7733 53.6899C64.7248 53.6899 64.7979 53.6857 64.8069 53.6843C64.9059 53.6692 65.0033 53.6468 65.0997 53.62C65.1832 53.5967 65.2594 53.5616 65.3459 53.5472C65.4008 53.5381 65.4575 53.5343 65.511 53.5183C65.5606 53.5035 65.6065 53.4795 65.6555 53.4633C65.689 53.4522 65.7209 53.4471 65.7525 53.4316C65.7771 53.4195 65.7947 53.4079 65.7553 53.4251C65.4728 53.5482 65.1621 53.5672 64.8563 53.564C64.6391 53.5617 64.4176 53.5408 64.2045 53.5053" stroke="white" stroke-width="0.2" stroke-linecap="round"/>
<path d="M86.1423 20.4022C86.1423 20.436 86.1359 20.4604 86.1107 20.4856C86.0948 20.5016 86.073 20.5203 86.0993 20.4891C86.1012 20.4869 86.1311 20.4054 86.1169 20.4575C86.1118 20.476 86.088 20.4941 86.087 20.5128C86.0853 20.5434 86.0584 20.5636 86.0554 20.5919C86.0545 20.5999 86.0404 20.6586 86.0361 20.6612C85.9941 20.6875 85.9939 20.7547 85.9724 20.7934C85.9132 20.9001 85.8408 20.9903 85.7753 21.0933C85.7048 21.2041 85.6207 21.3123 85.6207 21.4533" stroke="white" stroke-width="0.2" stroke-linecap="round"/>
<path d="M69.9916 9.14528C70.0969 9.14528 70.2266 8.81752 70.2761 8.71865C70.4332 8.40427 70.7232 8.13761 71.0069 7.9365C71.134 7.84632 71.2711 7.73375 71.3861 7.62838C71.5577 7.47101 71.7703 7.4295 71.9549 7.29655C72.2786 7.06347 72.6527 6.88183 72.9899 6.66451C73.309 6.45888 73.5958 6.22088 73.938 6.05222C74.3305 5.85871 74.7833 5.78284 75.202 5.66904C75.8282 5.49889 76.5299 5.41228 77.1732 5.41228" stroke="white" stroke-width="0.2" stroke-linecap="round"/>
<path d="M70.1009 8.96308C70.018 9.04597 69.9385 9.13264 69.8886 9.23991C69.8547 9.3128 69.8235 9.37784 69.782 9.44687C69.7487 9.50208 69.7041 9.56028 69.6852 9.62246C69.6714 9.6681 69.6655 9.71834 69.6655 9.7658C69.6655 9.83132 69.7608 9.67915 69.7667 9.66994C69.8142 9.59573 69.8573 9.52198 69.8993 9.44507C69.9351 9.37971 69.9611 9.30954 69.997 9.24439C70.0235 9.19622 70.0592 9.15529 70.0928 9.11225C70.1015 9.10115 70.1424 9.02168 70.1081 9.05312C70.0281 9.12642 69.9386 9.17272 69.8711 9.26186C69.7637 9.40377 69.6826 9.55433 69.6144 9.71922C69.5665 9.8352 69.5189 9.97655 69.5127 10.1027C69.5115 10.1279 69.5117 10.1536 69.5123 10.1788C69.5129 10.2038 69.5257 10.1701 69.5298 10.1636C69.5911 10.0655 69.6664 9.9829 69.6986 9.86883C69.7571 9.66211 69.815 9.4537 69.8671 9.24529" stroke="white" stroke-width="0.2" stroke-linecap="round"/>
<path d="M72.7065 4.4738C72.5657 4.53638 72.4072 4.57885 72.2602 4.62695C71.9063 4.74277 71.5892 4.96001 71.2683 5.14383C70.7269 5.45393 70.1924 5.86713 69.744 6.30082C69.6997 6.34365 69.5756 6.476 69.6291 6.4456C69.871 6.30832 70.1035 6.15375 70.3422 6.01128C70.7973 5.73975 71.2606 5.48183 71.7242 5.22519C72.1032 5.01535 72.4993 4.82576 72.8596 4.58388C72.9338 4.53405 73.0059 4.48107 73.0798 4.43073C73.0995 4.41728 73.1193 4.4038 73.1396 4.39125C73.1745 4.36971 73.1615 4.38249 73.1396 4.40441C72.8899 4.65414 72.618 4.88767 72.3332 5.09597C71.9342 5.38774 71.5124 5.64803 71.1056 5.92872C70.8235 6.1234 70.5129 6.30954 70.2585 6.54132C69.8434 6.91954 71.1215 5.82209 71.565 5.47765C71.9864 5.15041 72.4031 4.81854 72.8094 4.47261C72.912 4.38521 73.0604 4.26 73.1623 4.16033C73.2079 4.11578 73.3302 4 73.2664 4C73.2014 4 73.1503 4.05914 73.0965 4.09572C72.8893 4.23678 72.9354 4.21551 72.7089 4.36612C72.1671 4.72636 71.5804 5.01196 71.029 5.3568C70.6408 5.59959 70.2648 5.86066 69.9127 6.15366C69.7784 6.26546 69.4003 6.62901 69.5239 6.50542C69.6164 6.41287 69.7243 6.34046 69.8313 6.26493C70.338 5.9075 70.8491 5.54639 71.3856 5.23476C71.7692 5.01194 72.1687 4.82096 72.582 4.66046C72.644 4.63641 73.0638 4.40979 72.9458 4.63772C72.7835 4.95121 72.5454 5.24008 72.3045 5.4956C71.835 5.99354 71.2983 6.43036 70.7395 6.82368C70.5305 6.97078 70.3159 7.11335 70.0946 7.24125C69.9892 7.30211 69.8929 7.35443 70.0383 7.23767C70.4772 6.88535 70.9641 6.58577 71.4394 6.28647C72.0573 5.89738 72.6722 5.50669 73.2808 5.10315C73.6128 4.88305 73.9422 4.65506 74.2882 4.45705C74.4938 4.33943 74.2466 4.56381 74.214 4.59585C73.3025 5.49288 72.186 6.18717 71.1391 6.91222C70.8385 7.12038 70.5373 7.32825 70.2274 7.52243C70.0519 7.63236 70.1152 7.54532 70.1975 7.40996C70.761 6.48278 71.6522 5.72542 72.5462 5.12947C72.7595 4.98723 72.9785 4.85431 73.197 4.72028C73.4607 4.55856 73.0941 4.82667 73.0654 4.84711C72.066 5.55838 71.062 6.26327 70.0575 6.96726C69.9288 7.05748 69.8057 7.154 69.6794 7.24724C69.6239 7.28821 69.7553 7.13117 69.8026 7.08093C70.5415 6.29592 71.512 5.79736 72.4995 5.39988C72.6006 5.3592 72.7102 5.3142 72.8166 5.28621C72.9184 5.25941 72.7019 5.46418 72.6299 5.54106C72.2724 5.92303 71.8968 6.28044 71.4921 6.61191C71.1674 6.8778 70.8643 7.17672 70.5337 7.43389C70.523 7.44223 70.4863 7.44811 70.493 7.43628C70.526 7.37784 70.6429 7.24348 70.6749 7.20895C71.0595 6.79349 71.5385 6.47764 72.0018 6.15844C72.4298 5.86352 72.8608 5.57858 73.2353 5.21562C73.2504 5.20106 73.4352 5.00023 73.4016 5.02658C72.885 5.43248 72.3641 5.81853 71.8067 6.16802C71.5546 6.32611 71.3063 6.49161 71.0494 6.64182C71.0354 6.64998 70.8639 6.77004 70.8639 6.72797C70.8639 6.63115 70.9557 6.53167 71.0123 6.46474C71.2564 6.17609 71.5415 5.92705 71.851 5.71096C72.2915 5.40348 72.7512 5.11987 73.2138 4.84711C73.279 4.80868 73.4405 4.66236 73.4088 4.73105C73.361 4.83454 73.2219 4.93225 73.142 5.00265C72.8263 5.28086 72.5103 5.56109 72.1872 5.83061C71.636 6.29047 71.0566 6.72674 70.548 7.23527C70.5436 7.23971 70.4327 7.35785 70.4882 7.26758C70.7048 6.91564 71.0347 6.62063 71.3569 6.36902C71.7488 6.06295 72.1772 5.8185 72.5988 5.55781C72.8359 5.41122 73.0546 5.24425 73.2832 5.0864C73.5578 4.89678 72.7953 5.54325 72.5318 5.74805C72.0808 6.09857 71.6202 6.43813 71.163 6.78061C71.101 6.82705 70.7774 7.11855 70.6773 7.08212C70.6131 7.0588 70.8359 6.73109 70.8364 6.73036C71.2105 6.18065 71.6931 5.71315 72.1896 5.27544C72.53 4.97539 72.9037 4.70288 73.209 4.36493C73.2408 4.3297 73.3093 4.25503 73.3334 4.2022C73.3547 4.15564 73.2362 4.23808 73.1946 4.26801C72.5504 4.73228 71.8852 5.16442 71.2348 5.62003C71.1106 5.70705 70.9476 5.8726 70.7993 5.92872C70.7286 5.95546 70.8191 5.75278 70.822 5.74805C71.0113 5.44425 71.2721 5.23847 71.5674 5.04811C71.6268 5.00982 71.7491 4.90724 71.6368 5.03974C71.4542 5.25519 71.2732 5.47271 71.1104 5.70378C71.0811 5.74534 70.7483 6.30916 70.8531 6.29963C71.1618 6.27157 71.4658 6.14118 71.7565 6.04358C72.0469 5.94607 72.381 5.87628 72.6419 5.70857C72.645 5.70654 72.743 5.62602 72.6682 5.66191C72.5488 5.71921 72.4218 5.7556 72.2997 5.80668C71.8955 5.97574 71.4263 6.16781 71.0841 6.4456C71.0506 6.47274 71.0203 6.50328 70.9931 6.53653C70.9761 6.55738 71.0612 6.37585 71.0673 6.36783C71.2425 6.13892 71.495 5.96357 71.7325 5.80668C72.1452 5.53417 72.5837 5.31489 73.0463 5.14144C73.0682 5.13323 73.4579 4.95596 73.489 4.99786C73.547 5.07601 73.2892 5.28867 73.2569 5.31612C72.833 5.67547 72.3345 5.80287 71.839 6.01965C71.7827 6.04429 71.711 6.12022 71.7158 6.0364C71.7223 5.9223 71.9031 5.85365 71.9814 5.80668C72.0786 5.74835 72.2942 5.56978 72.4193 5.56978C72.4726 5.56978 72.3381 5.63902 72.2949 5.67028C72.203 5.73676 72.0997 5.78331 72.0065 5.84736C71.9569 5.88152 71.8158 5.98319 71.8462 5.93111C71.8996 5.83951 72.1009 5.77251 72.186 5.73489C72.5847 5.55872 73.0139 5.45048 73.4315 5.33048C73.8209 5.21861 74.2114 5.11381 74.6041 5.01461C74.691 4.99264 74.775 4.96915 74.8649 4.96915C74.9337 4.96915 74.9977 4.94761 75.0659 4.94761C75.0779 4.94761 75.1712 4.93852 75.1234 4.96197C74.9515 5.0463 74.7545 5.09622 74.5742 5.15699C74.0836 5.32233 73.5886 5.45267 73.1229 5.68225C73.094 5.69648 72.9599 5.73847 72.9506 5.78514C72.9477 5.79936 72.9794 5.79385 72.9936 5.79113C73.1398 5.76314 73.2853 5.71367 73.4292 5.67746C74.0792 5.51381 74.761 5.41735 75.383 5.15819C75.6425 5.05006 75.28 5.18862 75.2203 5.21323C74.8323 5.37323 74.4395 5.52027 74.0513 5.67985C74.0193 5.69302 73.9379 5.71949 74.0322 5.6966C74.3063 5.63007 74.5886 5.59832 74.8661 5.54944C75.1928 5.49188 75.528 5.34787 75.8556 5.33527C75.9534 5.33151 75.9105 5.31213 75.8353 5.30296C75.5427 5.26729 75.281 5.3438 75.0049 5.42979C74.9486 5.44734 74.7092 5.51719 74.92 5.47167C75.1132 5.42993 75.3029 5.36559 75.4871 5.29459C75.4995 5.2898 75.7376 5.20806 75.6714 5.20605C75.3775 5.19714 75.0905 5.19324 74.7979 5.16537C74.7151 5.15748 74.6191 5.15585 74.5359 5.16417C74.4487 5.17289 74.3035 5.20043 74.2356 5.25869C74.1267 5.35205 74.297 5.31373 74.3792 5.31373C74.4843 5.31373 74.6089 5.29272 74.7106 5.3245C74.7759 5.34492 74.8362 5.3568 74.9044 5.3568C75.058 5.3568 75.2115 5.3568 75.3651 5.3568C75.5013 5.3568 75.6351 5.33832 75.7695 5.33527C75.8809 5.33274 75.9728 5.37834 76.077 5.37834C76.1 5.37834 76.2029 5.34256 76.138 5.31852C76.0706 5.29356 75.9559 5.3204 75.8903 5.32689C75.6733 5.34835 75.4588 5.37344 75.2406 5.37834C74.9863 5.38405 74.7386 5.43508 74.488 5.47406C74.4213 5.48444 74.2786 5.45935 74.2559 5.53867C74.2301 5.62901 74.03 5.69725 73.9508 5.72771C73.8456 5.76817 74.0616 5.77352 74.0836 5.77677C74.1531 5.78699 74.2207 5.78754 74.2906 5.78754C74.3771 5.78754 74.6348 5.77672 74.5491 5.766C74.3188 5.73722 74.0146 5.77839 73.8048 5.88325C73.75 5.91068 73.64 5.92574 73.5775 5.9371C73.4307 5.96379 73.2724 6.03043 73.142 6.1058C73.0073 6.1836 72.8648 6.2444 72.728 6.31279C72.4603 6.44665 72.1772 6.55748 71.8977 6.67054C71.5049 6.8294 71.1771 7.11098 70.9237 7.44585C70.8559 7.53551 70.7746 7.61174 70.6952 7.69113C70.6414 7.74493 70.5352 7.82547 70.5109 7.89812C70.4544 8.0678 70.2342 8.19889 70.2082 8.37192C70.1976 8.44253 70.1464 8.56137 70.1173 8.63036C70.0965 8.67984 69.9459 8.95466 70.0168 8.823C70.0996 8.6693 70.2513 8.55884 70.2513 8.37192C70.2513 8.28804 70.3756 8.16491 70.4356 8.11349C70.5472 8.01784 70.6559 7.91682 70.7634 7.81676C70.8156 7.76817 70.867 7.7202 70.9189 7.67199C70.9819 7.61352 71.0652 7.57398 71.1223 7.51166C71.2425 7.38056 71.438 7.33799 71.5579 7.19938C71.675 7.06395 71.8518 7.02412 72.0089 6.96008C72.3022 6.84061 72.6566 6.71127 72.8788 6.47671C73.1029 6.24015 73.484 6.16377 73.7737 6.02922C73.9811 5.93296 74.2555 5.80907 74.4821 5.80907C74.5545 5.80907 74.5805 5.76696 74.4773 5.766C74.1207 5.7627 73.7943 5.84217 73.4555 5.94547C73.2967 5.99388 73.1416 6.11169 72.9984 5.99453C72.9624 5.96502 72.8695 5.97857 72.8261 5.98137C72.6599 5.99209 72.4502 6.04489 72.2997 6.12016C72.1727 6.18364 72.0565 6.29131 71.979 6.4121C71.8606 6.59655 71.784 6.82907 71.5902 6.9541C71.2972 7.14314 70.9718 7.27649 70.6725 7.45542C70.5146 7.54979 70.2639 7.6907 70.1975 7.87658C70.1809 7.923 70.1743 7.97451 70.1604 8.02255C70.1439 8.07921 70.1436 8.13621 70.1436 8.19485C70.1436 8.22197 70.1194 8.28834 70.1436 8.27621C70.2049 8.24557 70.2457 8.04932 70.2728 7.98427C70.3041 7.90932 70.2934 7.8163 70.3279 7.74736C70.3706 7.66193 70.4418 7.62387 70.5241 7.57986C70.6565 7.50907 70.7713 7.40441 70.8878 7.31185C70.9808 7.23803 71.0545 7.12842 71.1391 7.04384C71.2712 6.91172 71.4138 6.77419 71.5866 6.69566C71.7335 6.62888 71.9068 6.6062 72.0616 6.56285C72.303 6.49527 72.5014 6.3602 72.7328 6.27809C72.9384 6.20512 73.0985 6.07537 73.2868 5.97179C73.3623 5.93025 73.4468 5.8976 73.5249 5.86172C73.5758 5.83832 73.6675 5.85804 73.6924 5.78754C73.7004 5.76488 73.0735 5.85344 73.0247 5.86531C72.8781 5.90098 72.5992 5.97111 72.5127 6.12255C72.4514 6.22967 72.3436 6.305 72.2686 6.40252C72.1248 6.58945 71.9452 6.70701 71.7565 6.83804C71.6979 6.87873 71.8278 6.70641 71.8594 6.68609C72.1595 6.49318 72.4882 6.31277 72.8201 6.17998C72.9467 6.12937 73.3204 5.97977 73.2114 6.06153C73.0505 6.1822 72.823 6.19739 72.6395 6.26134C72.4511 6.32695 72.2713 6.44523 72.1465 6.60114C71.9972 6.78775 71.8388 6.91202 71.6057 6.99239C71.5051 7.02709 71.4018 7.05246 71.3018 7.0893C71.2476 7.10929 71.089 7.1428 71.1439 7.16109C71.2171 7.18549 71.4803 7.01465 71.5483 6.9876C71.7124 6.92226 71.8821 6.87302 72.046 6.80693C72.3651 6.6783 72.6213 6.54435 72.8991 6.34988C72.9048 6.34591 72.96 6.32375 72.9362 6.32715C72.8337 6.34179 72.7328 6.37123 72.6323 6.39535C72.3777 6.45645 72.1158 6.50677 71.8594 6.55807C71.6615 6.59764 72.182 6.30905 72.3667 6.22784C72.5601 6.1428 72.755 6.05177 72.9577 5.99094C72.9959 5.97948 73.0021 5.97373 73.0295 5.94906C73.2869 5.71744 73.611 5.50754 73.8647 5.25391C73.9043 5.21424 73.9444 5.11922 73.8467 5.1534C73.7848 5.17508 73.6515 5.27662 73.6541 5.35202C73.6581 5.46925 73.9909 5.55406 73.8551 5.71455C73.7722 5.81251 73.6643 5.86902 73.5847 5.95504C73.4515 6.0989 73.3008 6.2327 73.1276 6.32715C72.8837 6.46019 72.6732 6.64833 72.4038 6.74711C72.2583 6.80046 72.1306 6.8596 71.9958 6.93376C71.9486 6.9597 71.9023 6.99161 71.857 7.01751C71.821 7.0381 71.8174 7.1101 71.7792 7.13238C71.5303 7.2776 71.2469 7.43143 71.0362 7.63011C70.9844 7.67898 70.9315 7.69888 70.8854 7.75813C70.8473 7.80719 70.8005 7.84662 70.7574 7.88974C70.6238 8.02338 70.5212 8.1737 70.3422 8.25467C70.3108 8.26891 70.2439 8.29554 70.2202 8.31928C70.1932 8.34631 70.3858 8.22237 70.4212 8.19963C70.5469 8.11882 70.647 7.84447 70.639 7.70429C70.6304 7.5547 70.1697 7.92009 70.2764 8.02016C70.395 8.13134 70.4415 8.39494 70.3111 8.49636C70.2858 8.51608 70.3181 8.32824 70.3291 8.30971C70.4089 8.17533 70.5483 8.08569 70.6342 7.95555C70.7435 7.78981 70.9545 7.74062 71.0697 7.59661C71.1063 7.55089 71.2476 7.51245 71.3018 7.48893C71.4302 7.43318 71.5455 7.38239 71.6632 7.30467C71.7706 7.2337 71.9368 7.16304 72.0185 7.06777C72.0465 7.03506 72.2107 6.99584 72.0508 7.03905C71.8833 7.08432 71.7126 7.11943 71.5459 7.16707C71.4843 7.18468 71.419 7.22604 71.3545 7.23049C71.2465 7.23793 71.086 7.26484 71.0709 7.40039C71.0607 7.49234 71.1207 7.71355 71.0218 7.75694C71.0029 7.76524 70.9014 7.83291 70.8986 7.82035C70.8645 7.66696 71.3732 7.49141 71.4681 7.44585C71.744 7.31345 72.0084 7.15649 72.2841 7.02589C72.3577 6.99104 72.4587 6.82408 72.5079 6.75668C72.6657 6.54041 72.8769 6.3709 73.1264 6.26134C73.3794 6.1503 73.6057 5.9761 73.8455 5.84018C73.9912 5.75764 74.0988 5.766 74.2667 5.766C74.4113 5.766 74.6317 5.80691 74.7572 5.7325C74.8211 5.69464 74.9046 5.66398 74.9583 5.61524C75.0124 5.56605 75.1263 5.57272 75.1952 5.55063C75.2723 5.5259 75.342 5.4801 75.4201 5.46449" stroke="white" stroke-width="0.2" stroke-linecap="round"/>
<path d="M74.451 5.44295C74.263 5.45149 74.0632 5.46203 73.8802 5.50876C73.8299 5.52162 73.6847 5.56978 73.7367 5.56978C73.8994 5.56978 74.0898 5.48455 74.2404 5.43338C74.3508 5.39587 74.6146 5.30237 74.3959 5.47166C74.1224 5.68342 73.8572 5.90333 73.5955 6.12973C73.4756 6.23344 73.3828 6.33693 73.3011 6.47192C73.263 6.53495 73.238 6.54491 73.1707 6.56285C73.0512 6.59472 72.9441 6.6479 72.8309 6.68728C72.5834 6.77338 73.3017 6.45394 73.5488 6.36663C73.6442 6.33294 73.7056 6.32401 73.7618 6.2398" stroke="white" stroke-width="0.2" stroke-linecap="round"/>
<path d="M74.2954 5.82076C73.9734 5.99123 73.6863 6.21941 73.3875 6.42728C73.2387 6.53078 73.0729 6.64446 72.9055 6.71622C72.7855 6.76765 72.6908 6.86173 72.5792 6.91922C72.4822 6.96919 72.3818 7.02011 72.2902 7.08113C72.1577 7.16947 71.9965 7.20373 71.8643 7.28787C71.7563 7.35658 71.6165 7.40548 71.5268 7.50209C71.4319 7.60425 71.2997 7.70407 71.1893 7.78854C71.1 7.85682 71.0662 7.97654 70.9825 8.04011C70.881 8.1173 70.8121 8.34465 70.6749 8.37513C70.6032 8.39106 70.4712 8.5326 70.4271 8.58935C70.3523 8.68547 70.2928 8.8046 70.2104 8.89697C70.16 8.95338 70.1244 9.04951 70.0809 9.11616C70.0387 9.18057 69.9982 9.26193 69.9737 9.33536C69.9494 9.40833 69.8945 9.47786 69.8517 9.5421C69.803 9.6151 69.7789 9.70294 69.7334 9.77873C69.5458 10.0914 69.4283 10.4485 69.3411 10.7975" stroke="white" stroke-width="0.2" stroke-linecap="round"/>
<path d="M62.4535 53.1477C62.8105 53.1477 63.17 53.1626 63.5263 53.1452C64.1175 53.1164 64.6591 52.8326 65.2071 52.6452C66.0181 52.368 66.7563 51.8747 67.4683 51.4066C68.1103 50.9846 68.7433 50.5231 69.3476 50.0474C69.5286 49.9049 69.943 49.3766 69.8701 49.5952C69.7351 50.0002 69.3958 50.3919 69.1441 50.7308C68.9766 50.9562 68.8643 51.1689 68.6642 51.3689C68.4106 51.6225 68.168 51.8918 67.8803 52.1076C67.4691 52.416 67.0825 52.5306 66.6241 52.7407C66.3072 52.886 66.0426 53.026 65.7096 53.1276C65.2975 53.2533 64.8797 53.3012 64.481 53.4643C64.0995 53.6204 63.7305 53.7996 63.3429 53.9391C62.916 54.0928 64.2327 53.7307 64.6444 53.5396C65.1386 53.3103 65.6194 53.0362 66.1141 52.8136C66.1824 52.7828 66.2707 52.8055 66.3327 52.7658C66.488 52.6664 65.9866 52.7747 65.9809 52.7759C65.4769 52.8767 64.8926 53.0442 64.4635 53.3387C64.264 53.4755 63.9421 53.5874 63.7901 53.7808C63.7593 53.8201 63.7025 53.8872 63.7952 53.8512C64.2662 53.668 64.7298 53.4825 65.2122 53.3286C65.7615 53.1534 66.2859 52.9546 66.7648 52.6302C66.915 52.5284 67.1213 52.3507 66.7899 52.4769C66.3395 52.6485 65.8849 52.8377 65.4383 53.0221C64.9984 53.2037 64.6056 53.307 64.1469 53.4241C63.8243 53.5065 63.5306 53.7092 63.2223 53.8361C62.8606 53.9851 63.8276 53.3222 64.1871 53.1678C64.6578 52.9657 65.1597 52.8931 65.6468 52.7432C65.9807 52.6405 66.9961 52.4292 66.6467 52.4292C66.1644 52.4292 65.596 52.6289 65.1418 52.7859C64.7181 52.9325 64.3078 53.1645 63.9534 53.4392C63.8028 53.5559 63.6587 53.6367 63.4937 53.7256C63.3393 53.8087 63.8256 53.6118 63.9886 53.5472C64.5878 53.3099 65.204 53.1486 65.8227 52.9718C66.2757 52.8424 66.6673 52.7171 67.0638 52.4694C67.0936 52.4507 67.2464 52.3061 67.217 52.2634C67.1734 52.1998 66.8624 52.2433 66.805 52.2433C66.5187 52.2433 66.2181 52.2289 65.9407 52.3136C65.7201 52.381 65.4634 52.5067 65.2574 52.6151C64.4886 53.0197 66.9908 52.1825 67.6793 51.6528C67.9521 51.443 68.186 51.261 68.423 51.0172C68.6474 50.7864 68.463 50.8352 68.2094 50.9142C67.1129 51.2557 66.302 51.9972 65.5589 52.8362C65.277 53.1544 64.9056 53.3947 64.6117 53.7055C64.5201 53.8023 64.4555 53.9295 64.363 54.022C64.2253 54.1597 64.6571 53.7634 64.8252 53.6653C65.6888 53.1612 66.6232 52.5663 67.1819 51.7106C67.3742 51.416 67.4639 51.0754 67.6316 50.7735C67.7869 50.494 67.4776 50.9016 67.403 50.972C66.8091 51.5326 66.306 52.1795 65.7297 52.7558C65.4752 53.0103 65.1607 53.2042 64.9056 53.4593C64.8091 53.5558 64.4198 53.9496 64.7649 53.6502C65.6023 52.9238 66.612 52.4309 67.3653 51.6051C67.4638 51.4971 67.5708 51.3983 67.619 51.2584C67.6455 51.1817 67.6484 51.0868 67.6994 51.0222C67.7405 50.9702 67.5668 51.0461 67.5085 51.0775C67.1595 51.2654 66.8153 51.4846 66.4834 51.7006C66.0111 52.0079 65.548 52.4081 65.172 52.8312C65.0913 52.9219 64.5256 53.9961 64.4207 53.9542C64.2943 53.9036 64.4924 53.6886 64.5589 53.5698C64.8097 53.1217 65.0954 52.7563 65.4785 52.4141C66.0996 51.8593 66.7709 51.3387 67.4432 50.8464C67.6962 50.661 68.199 50.4181 68.3326 50.1178C68.3394 50.1024 68.422 49.9559 68.4029 49.957C68.2414 49.9659 68.0344 50.2383 67.9255 50.3338C67.1232 51.0381 66.4279 51.6793 65.9357 52.6503C65.8074 52.9035 65.664 53.0994 65.476 53.311C65.4346 53.3575 64.9165 53.8021 65.0061 53.5899C65.1348 53.2852 65.4756 52.9998 65.7197 52.7859C66.2108 52.3554 66.7458 51.9767 67.2472 51.5599C67.7612 51.1325 68.4313 50.5813 68.7848 49.9921C68.8122 49.9464 68.9663 49.4894 68.8099 49.5675C68.1083 49.9184 67.4828 50.4759 66.9206 51.0122C66.5206 51.3937 66.1551 51.6957 65.6945 51.997C65.3566 52.2182 64.9864 52.4278 64.6695 52.6754C64.4561 52.8421 64.296 53.0997 64.0464 53.203C63.8739 53.2744 63.7715 53.4569 63.5992 53.5296C63.4046 53.6117 63.2014 53.7183 62.9937 53.7582C62.8082 53.7939 62.2593 53.931 62.4385 53.8713C63.1712 53.627 63.8939 53.2477 64.569 52.8764C64.8452 52.7245 65.0152 52.4619 65.2549 52.2684C65.3789 52.1682 65.766 51.9183 65.6091 51.9468C65.4738 51.9714 65.286 52.1668 65.1795 52.2382C64.704 52.5573 64.2019 52.8316 63.7324 53.1603C63.4596 53.3512 63.2009 53.4938 62.8706 53.5095C62.833 53.5113 62.745 53.5924 62.7751 53.5698C62.894 53.4806 63.0114 53.3897 63.1369 53.3085C64.0487 52.7186 65.0921 52.3791 66.0061 51.7885C66.6115 51.3973 67.167 50.9062 67.4934 50.2534C67.5687 50.1029 67.6393 49.9458 67.7271 49.8012C67.8351 49.6232 68.2735 49.1727 68.1416 49.3339C67.917 49.6084 67.7233 49.9591 67.5185 50.2534C67.2311 50.6666 66.8632 50.9741 66.5086 51.3287C66.1957 51.6416 65.9159 52.0869 65.5287 52.3136C65.2513 52.476 64.9565 52.6497 64.6921 52.8337C64.6676 52.8507 64.4725 53.0199 64.5439 52.997C65.0175 52.8447 65.4692 52.567 65.9106 52.3437C66.4846 52.0534 67.2378 51.7422 67.4231 51.0474C67.4317 51.0151 67.4497 50.902 67.3879 50.9167C67.0299 51.002 66.674 51.239 66.3528 51.4091C65.8602 51.6701 65.5422 51.9855 65.1443 52.3488C64.9887 52.4909 64.7914 52.5794 64.6343 52.7307C64.5966 52.767 64.5687 52.7859 64.5162 52.7859C64.474 52.7859 64.5814 52.7321 64.6142 52.7055C64.7659 52.5827 64.9088 52.4491 65.0664 52.3337C66.1002 51.5766 67.2546 51.0238 68.0512 49.9921C68.3461 49.6102 68.556 49.2207 68.6767 48.756C68.7532 48.4619 68.9657 48.1974 68.9657 47.8868C68.9657 47.8105 68.9726 48.041 68.9556 48.1154C68.9019 48.3503 68.7526 48.5925 68.629 48.7962C68.3716 49.2204 68.1166 49.6808 67.8075 50.07C67.2625 50.7563 66.4095 51.2036 65.7624 51.786C64.754 52.6936 67.7931 49.9674 68.6391 48.9068C69.2124 48.188 69.7337 47.4377 70.2319 46.6758C70.3449 46.5031 70.4304 46.442 70.3224 46.6909C70.2135 46.9418 70.0329 47.1729 69.8626 47.3843C69.4635 47.8795 69.0427 48.3563 68.6491 48.8565C67.8184 49.9123 66.9621 50.9498 65.991 51.8815C65.6363 52.2218 65.2968 52.58 64.9559 52.9342C64.6513 53.2506 64.2957 53.5988 64.1067 54.0019C63.9802 54.2718 63.8535 54.4314 63.5841 54.5597C63.5128 54.5936 62.943 54.8294 62.9384 54.7556C62.9214 54.4837 63.2671 54.1228 63.4183 53.9316C63.609 53.6906 63.7786 53.4392 63.961 53.1929C64.1172 52.982 63.8435 53.1005 63.765 53.1377C63.6777 53.179 63.5168 53.1477 63.4233 53.1477C63.1143 53.1477 62.8053 53.1477 62.4963 53.1477C62.3656 53.1477 61.5572 53.2009 62.0566 53.1929C62.3514 53.1883 62.6354 53.1025 62.9309 53.1025C63.1462 53.1025 63.3374 53.0819 63.5489 53.0472C63.7742 53.0103 63.9846 52.9042 64.2122 52.8789C64.3619 52.8623 64.4405 52.8719 64.564 52.806C64.7248 52.7202 65.0672 52.7859 65.2348 52.7859C65.5102 52.7859 65.8356 52.8311 66.1066 52.7633C66.3064 52.7134 66.5038 52.6552 66.7045 52.605" stroke="white" stroke-width="0.2" stroke-linecap="round"/>
</svg>
