<svg width="35" height="51" viewBox="0 0 35 51" fill="none" xmlns="http://www.w3.org/2000/svg">
<path d="M18.5644 1.01782C9.34841 37.3968 2.77774 46.4915 0.644409 46.4915L12.1644 49.0178L32.6444 16.1757" stroke="#FD9C00"/>
<path d="M18.1444 1.51782C35.7444 1.51782 34.8111 11.8512 32.1444 17.0178" stroke="#FD9C00"/>
<path d="M20.237 2.86401C20.0103 2.9018 20.0175 3.09961 19.8711 3.22764C19.779 3.30824 19.7214 3.39972 19.6211 3.47992C19.4754 3.59651 19.3461 3.73226 19.2143 3.86401C19.0541 4.0242 19.0916 3.62251 19.0916 3.53674C19.0916 3.38148 19.1037 3.13117 19.2143 3.00946C19.3111 2.90294 19.1902 2.72342 19.2757 2.62082C19.3235 2.56337 19.7764 2.18631 19.4393 2.13446C19.3472 2.12028 19.207 2.46683 19.1825 2.54582C19.1368 2.69314 19.0997 2.76905 18.9507 2.84582C18.8494 2.89798 18.7844 2.99556 18.8143 2.8731C18.8448 2.74823 18.94 2.55925 19.0098 2.44582C19.0547 2.37278 19.082 2.28733 19.1529 2.23218C19.2309 2.17159 19.4194 2.20946 19.5075 2.20946C19.772 2.20946 20.0189 2.26806 20.2802 2.28673C20.6877 2.31583 21.1711 2.26476 21.5643 2.39582C22.0242 2.54911 22.5252 2.53673 23.0098 2.53673C23.2187 2.53673 23.3498 2.55709 23.5348 2.614C23.6761 2.65748 23.8387 2.58456 23.9802 2.639C24.2889 2.75771 24.6417 2.66208 24.9507 2.75037C25.2461 2.83476 25.488 2.98584 25.7825 3.05946C26.3657 3.20526 27.0296 3.13378 27.5598 3.43674C27.8066 3.57776 27.9836 3.80999 28.2371 3.93674C28.4395 4.03792 28.6088 4.21109 28.828 4.25492" stroke="#FD9C00" stroke-linecap="round"/>
<path d="M23.9189 10.1459C23.9189 10.2204 23.9014 10.2736 23.8734 10.3436C23.758 10.6321 23.699 10.9429 23.6143 11.2413C23.5309 11.5353 23.4006 11.7878 23.3052 12.0686C23.2484 12.2359 23.1629 12.3752 23.0984 12.53C22.7207 13.4365 22.5621 14.3886 22.3143 15.3368C22.2133 15.7234 22.0587 15.9668 21.8007 16.2641C21.7327 16.3425 21.65 16.4081 21.5734 16.4777C21.544 16.5045 21.591 16.3992 21.6098 16.3641C21.7828 16.0405 21.9663 15.7215 22.1439 15.4004C22.6582 14.4703 23.218 13.5768 23.8052 12.6913C24.0281 12.3553 24.2493 12.0182 24.4757 11.6845C24.5534 11.5701 24.671 11.3336 24.7916 11.2413C24.8166 11.2223 24.7847 11.626 24.778 11.6595C24.7304 11.8973 24.65 12.1254 24.5734 12.355" stroke="#FD9C00" stroke-width="5" stroke-linecap="round"/>
<path d="M22.656 15.8173C22.5814 16.1406 22.3483 16.4745 22.204 16.7661C21.5604 18.067 20.8889 19.3593 20.3908 20.7253C19.6869 22.6561 19.1102 24.7376 18.7217 26.756C18.3154 28.8667 17.9437 31.0574 16.9929 33.0053C16.1555 34.721 15.399 36.4178 14.7178 38.2015C14.2143 39.5198 13.9621 41.5167 12.4823 42.1557C11.8351 42.4352 11.0731 42.7255 10.7288 43.3877C10.5214 43.7865 10.0824 44.466 9.72531 44.7041C9.09134 45.1267 9.45909 43.6574 9.53157 43.3628C9.84856 42.0744 10.5409 40.8058 11.2504 39.6917C11.8771 38.7076 12.6989 37.8983 13.1977 36.8304C14.4248 34.2029 14.0434 31.102 15.3238 28.5046C15.7969 27.5449 16.6013 26.8314 17.1519 25.9314C17.623 25.1614 17.8867 24.2972 18.2647 23.4873C18.4428 23.1056 18.4555 22.6287 18.5925 22.2256C18.7591 21.7355 18.9243 21.2456 19.0744 20.7502C19.3589 19.8111 19.6832 18.8991 19.8891 17.9385C20.1468 16.7359 20.086 15.4138 20.4206 14.2426C20.5826 13.6756 20.5081 13.0644 20.6392 12.484C20.7408 12.0339 20.802 11.5679 20.9174 11.1229C21.2421 9.87059 21.6419 8.64159 21.8314 7.36241C21.8724 7.08607 21.8997 6.70174 21.8314 6.42849C21.7833 6.23594 21.5341 5.64841 21.3645 5.55419C20.8147 5.24879 20.2252 5.74087 19.9338 6.11553C19.8206 6.2611 19.7947 6.65348 19.7947 6.83584C19.7947 7.29947 19.6903 7.67089 19.6258 8.12246C19.4897 9.07542 19.3866 10.1091 19.1191 11.0285C18.9576 11.5838 18.9401 12.2315 18.8608 12.8069C18.7843 13.3613 18.5716 13.95 18.5428 14.4959C18.4849 15.5976 17.757 16.5905 17.5791 17.6752C17.2934 19.4179 16.7516 21.1213 16.1733 22.7919C15.8568 23.7061 15.5755 24.6417 15.2791 25.5638C14.9639 26.5445 14.8096 27.6768 14.2508 28.5643C13.6725 29.4828 13.5082 30.5801 12.999 31.5349C12.5774 32.3254 12.4614 33.2458 12.0601 34.0485C11.7502 34.6683 11.3876 35.2968 11.1212 35.9362C10.8353 36.6224 10.3558 37.2245 10.0879 37.9133C9.84317 38.5427 9.41232 39.082 9.06461 39.647C8.74206 40.1712 8.53168 40.6799 8.27972 41.2118C8.07991 41.6337 7.96133 42.1465 7.72335 42.5332C7.50277 42.8917 7.21419 43.2969 7.09743 43.7056C7.05834 43.8424 6.80179 44.153 6.70002 44.2918C6.58151 44.4534 6.47409 44.5371 6.29267 44.6097C5.97009 44.7387 5.51538 44.7817 5.30908 45.0568" stroke="#FD9C00" stroke-width="5" stroke-linecap="round"/>
<path d="M28.0211 13.5818C27.5909 13.8238 27.1689 14.6899 26.8785 15.0771C26.5727 15.4849 26.3821 15.9505 26.193 16.4233C25.5817 17.9514 25.0496 19.4531 24.2655 20.9091C23.9177 21.555 23.513 22.1479 23.2323 22.8415C22.9383 23.5678 22.7199 24.3206 22.3878 25.0322C22.039 25.7796 21.7527 26.5777 21.4241 27.3322C21.1451 27.9729 20.6777 28.6486 20.51 29.3193" stroke="#FD9C00" stroke-width="5" stroke-linecap="round"/>
<path d="M21.136 4.01422C21.6277 4.06885 21.8974 4.56878 22.2984 4.7693C22.7761 5.00813 23.3015 5.41901 23.8135 5.57902C24.3795 5.75588 24.7288 6.21044 25.2492 6.43346C25.7061 6.62928 25.825 7.0322 26.1881 7.32266C26.5698 7.62806 26.6862 8.02418 26.8388 8.46522C26.9349 8.74268 27.1044 8.96558 27.1269 9.26997C27.136 9.3927 27.2649 9.8942 27.3257 9.98531C27.8447 10.7639 28.7665 11.377 29.0047 12.33" stroke="#FD9C00" stroke-width="5" stroke-linecap="round"/>
<path d="M25.1597 5.35547C25.4795 5.75524 25.8618 6.1496 26.183 6.5626C26.3823 6.81887 26.525 7.45746 26.8586 7.5909C27.0906 7.68371 27.2753 7.85851 27.4448 8.03799C27.5528 8.1524 28.0039 8.47758 28.021 8.57449C28.0599 8.79453 28.4036 9.06143 28.5178 9.28983C28.643 9.5402 28.8484 9.7381 28.9152 10.0052" stroke="#FD9C00" stroke-width="5" stroke-linecap="round"/>
<path d="M25.7856 7.85918C26.1649 7.85918 26.7368 7.74273 27.0375 7.99827C27.235 8.16615 27.6669 8.36781 27.9317 8.39568C28.1641 8.42015 28.273 8.60786 28.3986 8.73348C28.5613 8.89616 29.0537 8.96679 29.2729 9.0216" stroke="#FD9C00" stroke-width="5" stroke-linecap="round"/>
<path d="M25.3385 5.35547C25.4176 5.71132 26.1378 5.79796 26.3221 6.12048C26.4973 6.4271 26.8403 6.80693 27.1716 6.88053C27.3383 6.91759 27.5045 7.13447 27.6634 7.14382C27.798 7.15173 28.1097 7.07577 28.1999 7.18852C28.3774 7.41043 28.7465 7.5912 28.8705 7.81445C29.0168 8.07784 29.3201 8.27165 29.4318 8.59436C29.573 9.0021 29.7108 9.41521 29.8988 9.82634C30.2761 10.6518 30.3459 11.7754 30.3459 12.6877C30.3459 13.0321 30.3459 13.3765 30.3459 13.721C30.3459 14.2217 30.1793 14.4557 29.9832 14.9132C29.824 15.2846 29.432 15.5984 29.2729 15.9961C29.1236 16.3692 28.911 16.7279 28.6917 17.0691C28.4868 17.3878 28.22 17.9591 28.1999 18.321C28.1912 18.4764 28.05 18.6047 27.9713 18.7283C27.8536 18.9133 27.8907 19.1494 27.7528 19.3046C27.5785 19.5006 27.5964 19.8588 27.3951 20.0199C27.2619 20.1264 27.1365 20.4248 27.0374 20.5763C26.7671 20.9897 26.4387 21.3961 26.2327 21.8083" stroke="#FD9C00" stroke-width="5" stroke-linecap="round"/>
<path d="M22.5666 22.7025C22.5666 23.0684 22.7076 23.4159 22.7454 23.7755C22.7848 24.1489 23.1657 24.5068 23.1925 24.8683C23.2173 25.2032 23.3714 25.44 23.3714 25.7625C23.3714 26.1768 23.1712 26.3068 22.9591 26.6368C22.7675 26.9348 22.4304 27.1115 22.2984 27.4416C22.1993 27.6892 21.9559 28.1644 21.7619 28.3308C21.2333 28.7838 20.8197 29.5048 20.51 30.1241" stroke="#FD9C00" stroke-width="5" stroke-linecap="round"/>
<path d="M15.7709 29.8558C15.8211 30.3576 16.1251 30.9004 16.3571 31.3312C16.6284 31.835 16.7668 32.3452 17.0675 32.8463C17.395 33.3921 18.4867 34.5903 17.917 35.2606C17.2782 36.0121 16.9502 36.9108 16.4416 37.7246C16.2094 38.0961 16.0499 38.6085 15.7709 38.9367C15.4246 39.3441 15.0821 39.7862 14.7874 40.2282" stroke="#FD9C00" stroke-width="5" stroke-linecap="round"/>
<path d="M18.364 29.4088C18.5964 29.4378 18.8455 30.5261 18.9899 30.7699C19.217 31.153 19.437 31.6474 19.437 32.0913C19.437 32.2403 19.437 32.3893 19.437 32.5384C19.437 32.7849 19.4977 32.4477 19.596 32.3397C19.8262 32.0864 19.9735 31.7925 19.9735 31.4654" stroke="#FD9C00" stroke-width="5" stroke-linecap="round"/>
<path d="M22.1195 20.1987C22.1531 20.8033 22.6354 21.4259 22.9441 21.9175C23.1316 22.2161 23.2371 22.5053 23.4608 22.7422C23.647 22.9393 23.7949 23.3442 23.9277 23.5966C24.0704 23.8677 24.4378 24.0647 24.6232 24.3119" stroke="#FD9C00" stroke-width="5" stroke-linecap="round"/>
<path d="M27.6634 10.184C27.3342 10.1429 28.1215 8.56685 28.1801 8.35593C28.2473 8.11387 28.3337 7.82641 28.3738 7.58595C28.4162 7.33144 28.539 7.31921 28.6272 7.07428C28.7702 6.67693 29.235 6.82809 29.4319 7.07428C29.6365 7.32997 29.7457 7.80057 29.9187 8.12742C30.0897 8.45024 30.101 8.82137 30.3261 9.13088C30.5095 9.3831 30.4255 9.81401 30.5943 10.0251C30.6839 10.137 30.6621 10.4312 30.7483 10.5864C30.8481 10.766 30.8903 11.0365 30.952 11.2372C31.06 11.5881 31.0613 12.1442 31.0613 12.5089" stroke="#FD9C00" stroke-width="5" stroke-linecap="round"/>
<path d="M11.7471 41.8378C11.7471 42.5145 11.8365 43.2014 11.8365 43.8894C11.8365 44.2044 11.8926 44.33 11.613 44.4805C11.3959 44.5974 11.1406 44.7496 11.0317 44.9674" stroke="#FD9C00" stroke-width="5" stroke-linecap="round"/>
<path d="M12.7307 41.9272C12.9931 41.96 13.1689 42.8035 13.2672 43.0002" stroke="#FD9C00" stroke-width="5" stroke-linecap="round"/>
<path d="M8.43871 43.8943C8.43871 44.2282 8.41165 44.6606 8.548 44.9674C8.69303 45.2937 8.51158 45.7721 8.98018 45.7721C9.44147 45.7721 10.6741 45.7002 10.6741 46.3086" stroke="#FD9C00" stroke-width="5" stroke-linecap="round"/>
<path d="M8.5281 44.3414C8.45475 44.6715 7.62458 45.2946 7.41536 45.5039C6.99231 45.9269 6.00245 45.2356 5.48792 45.2356" stroke="#FD9C00" stroke-width="5" stroke-linecap="round"/>
<path d="M20.2418 16.4432C19.8626 16.5467 19.6113 16.8781 19.1688 16.6569C18.7653 16.4551 19.0212 16.1598 18.8558 15.862C18.692 15.5671 18.596 15.2808 18.1852 15.2808C17.9137 15.2808 17.5593 15.2277 17.5593 15.5888C17.5593 16.0953 17.4698 16.5656 17.4698 17.0493C17.4698 17.1207 17.2635 17.6287 17.2016 17.6752C17.0002 17.8262 17.0379 18.3004 16.8936 18.3906C16.6299 18.5553 16.8513 18.8263 16.7098 19.0811C16.5766 19.3208 16.536 19.6662 16.4415 19.9305C16.2426 20.4876 16.0537 21.0198 15.905 21.5847C15.7374 22.2216 15.7529 22.9371 15.4629 23.5171C15.2169 24.0092 14.9683 24.7248 14.8718 25.2558C14.7682 25.8256 14.5923 26.3775 14.4098 26.9249C14.2959 27.2667 14.096 27.5351 14.0024 27.8887C13.9395 28.1263 13.8371 28.5728 13.6944 28.763C13.5234 28.9911 13.5552 29.3709 13.4014 29.6273C13.2166 29.9352 13.1341 30.3206 12.9493 30.6109C12.6129 31.1396 12.1497 31.7319 11.9359 32.3198C11.5124 33.4845 11.1707 34.6252 10.6046 35.7574C10.3906 36.1853 10.3548 36.5926 10.1575 37.0092C10.0464 37.2438 9.88136 37.4998 9.79982 37.7444C9.68027 38.1031 9.39384 38.5578 9.86937 38.0822" stroke="#FD9C00" stroke-width="5" stroke-linecap="round"/>
<path d="M21.583 5.53431C21.5596 5.34705 20.9463 5.46711 20.7832 5.43992C20.5098 5.39436 20.3689 5.14135 20.1523 5.08722" stroke="#FD9C00" stroke-width="5" stroke-linecap="round"/>
<path d="M20.6889 12.8665C20.6113 12.1683 19.5945 12.1438 19.1191 11.9277C18.8443 11.8027 18.737 11.7496 18.5876 11.4806C18.4844 11.2949 18.8656 10.907 18.99 10.7205" stroke="#FD9C00" stroke-width="5" stroke-linecap="round"/>
<path d="M18.7216 14.3866C18.7123 14.3031 18.6766 14.2744 18.6322 14.2078" stroke="#FD9C00" stroke-linecap="round"/>
<path d="M17.8275 13.0454C17.7979 12.8089 17.1882 12.6878 17.0227 12.8864C16.7808 13.1767 16.5492 13.5685 16.2875 13.8303C15.9046 14.2131 16.0022 14.0241 16.0391 13.562C16.0517 13.4052 16.1736 13.3123 16.213 13.1745C16.2692 12.9777 16.2118 12.7124 16.218 12.5089C16.2586 11.1666 16.5703 15.308 16.0193 16.5326C15.9565 16.6721 15.5026 17.2925 15.5026 16.8903C15.5026 16.7356 15.3463 16.0133 15.145 16.3935C14.9273 16.8047 15.0139 17.1177 14.7177 17.4467C14.3832 17.8184 15.0016 17.3778 15.0853 17.3175C15.7152 16.864 16.3813 16.4087 16.9134 15.8372C17.6228 15.0753 17.3968 13.6519 17.3108 12.7274C17.2389 11.9546 17.291 11.1595 17.291 10.3827C17.291 10.0664 17.334 9.70127 17.132 9.4488C17.0153 9.3029 17.1242 9.18494 16.983 9.54815C16.8692 9.84068 17.1186 9.96473 17.3108 10.1641C17.867 10.7409 17.6486 12.115 17.6486 12.8268C17.6486 13.4958 17.6486 14.1647 17.6486 14.8337" stroke="#FD9C00" stroke-linecap="round"/>
<path d="M13.7143 22.3448C13.3863 22.3448 13.3567 22.6671 13.3567 22.9657C13.3567 23.237 13.1773 23.5933 13.0884 23.8599C13.0248 24.0509 12.8934 24.2552 12.7804 24.4213C12.6475 24.6168 12.6208 24.8741 12.4824 25.0472C12.1633 25.446 12.3119 26.0807 11.9707 26.4977C11.5744 26.9821 11.5284 27.4675 11.3696 28.0675C11.2365 28.5703 11.0318 28.9316 11.0318 29.4584C11.0318 29.5679 10.8697 29.8198 10.9722 29.7813C11.3723 29.6313 11.8083 28.9747 12.0452 28.6437C12.3733 28.1854 12.6735 27.71 12.8996 27.1932C13.0367 26.8799 13.027 26.5449 13.1778 26.2295C13.6611 25.2189 13.7525 24.3293 13.8882 23.2439C13.9335 22.8812 13.7143 22.6851 13.7143 22.3647C13.7143 21.8762 13.5382 21.8163 13.7143 22.3448Z" stroke="#FD9C00" stroke-linecap="round"/>
<path d="M4.05722 45.9509C4.03739 46.2681 2.80537 46.5519 2.80537 46.2192C2.80537 45.834 3.09616 46.2639 2.71596 46.3086C2.58533 46.324 2.4774 46.4174 2.35829 46.4676C2.04049 46.6014 2.37812 46.4874 2.62654 46.4874" stroke="#FD9C00" stroke-linecap="round"/>
<path d="M13.3827 21.2865C13.3663 21.4425 13.2413 21.597 13.2413 21.7538C13.2413 21.7879 13.2216 21.8065 13.2146 21.8378C13.2072 21.8712 13.2131 21.9114 13.2131 21.9454C13.2131 22.0888 13.2366 22.2251 13.2131 22.3687C13.1837 22.5479 13.1569 22.6963 13.0497 22.8414C12.9926 22.9187 12.9402 23.009 12.8927 23.0911C12.8258 23.2066 12.7585 23.3143 12.705 23.4375C12.6735 23.51 12.6534 23.5933 12.6484 23.6723C12.6449 23.7293 12.6833 23.7221 12.7325 23.732" stroke="#FD9C00" stroke-linecap="round"/>
</svg>
